<?xml version="1.0" encoding="UTF-8" standalone="no"?>
<svg
   viewBox="0 0 1040 200"
   version="1.1"
   id="svg228"
   xmlns="http://www.w3.org/2000/svg"
   xmlns:svg="http://www.w3.org/2000/svg">
  <defs
     id="defs232">
    <rect
       x="17.563909"
       y="16.400736"
       width="980.67051"
       height="116.8338"
       id="rect1519" />
    <rect
       x="69.644116"
       y="111.54397"
       width="472.05487"
       height="52.880061"
       id="rect1479" />
    <rect
       x="84.639823"
       y="51.599331"
       width="913.09314"
       height="129.0277"
       id="rect1313" />
    <rect
       x="25.138738"
       y="138.41581"
       width="1009.4182"
       height="53.549801"
       id="rect1305" />
  </defs>
  <style
     id="style200">
@namespace svg url(http://www.w3.org/2000/svg);

svg {
  font-family: Helvetica, Arial, sans-serif;
  text-rendering: geometricPrecision;
}
svg|a:link, svg|a:visited {
  cursor: pointer;
}
.flag-blue {
  fill: #0057b7;
}
.flag-yellow {
  fill: #ffd700;
}
.message {
  fill: white;
  font-size: 20px;
}
.call {
  fill: black;
  font-size: 32px;
}
.mobile-only {
  display: none;
}
.arrow {
  font-size: 24px;
}
@media (max-width: 770px) {
  .message {
    display: none;
    font-size: 29px;
  }
  .mobile-only {
    display: inherit;
  }
  .call {
    font-size: 36px;
  }
}
  </style>
  <g
     id="g1475"
     style="display:inline">
    <rect
       style="display:inline;fill:#0071ce;stroke-width:6.36432;paint-order:fill markers stroke"
       id="rect567"
       width="1040"
       height="150"
       x="0"
       y="0" />
    <g
       aria-label="Russia has invaded Ukraine and already killed tens of thousands of civilians, with many more raped or tortured. It's a genocide. We need your help!"
       transform="translate(10.604586,-2.433682)"
       id="text1517"
       style="font-size:32px;font-family:Jura;-inkscape-font-specification:Jura;text-align:justify;letter-spacing:0px;white-space:pre;shape-inside:url(#rect1519);display:inline;fill:#2e3440;stroke-width:6.09638;paint-order:fill markers stroke">
      <path
         d="m 35.619385,46.535518 q -0.352,0.208 -0.64,0.144 -0.288,-0.064 -0.512,-0.4 l -5.248,-8.352 h -5.872 v 7.728 q 0,0.848 -0.832,0.848 -0.848,0 -0.848,-0.848 v -18.928 q 0,-0.848 0.848,-0.848 h 7.488 q 2.736,0 4.128,1.408 1.408,1.408 1.408,4.144 v 0.96 q 0,2.416 -1.104,3.792 -1.104,1.376 -3.264,1.68 l 4.72,7.52 q 0.448,0.736 -0.272,1.152 z m -12.272,-10.288 h 6.656 q 2.016,0 2.928,-0.912 0.928,-0.928 0.928,-2.944 v -0.96 q 0,-2.032 -0.928,-2.944 -0.912,-0.928 -2.928,-0.928 h -6.656 z"
         style="text-align:center;text-anchor:middle;fill:#fefefe"
         id="path1806" />
      <path
         d="m 53.347398,31.383518 q 0.848,0 0.848,0.832 v 13.44 q 0,0.848 -0.848,0.848 -0.832,0 -0.832,-0.848 v -1.52 q -1.52,2.368 -5.504,2.368 h -0.896 q -2.992,0 -4.384,-1.392 -1.376,-1.392 -1.376,-4.384 v -8.512 q 0,-0.832 0.832,-0.832 0.848,0 0.848,0.832 v 8.512 q 0,2.288 0.896,3.2 0.912,0.896 3.184,0.896 h 0.896 q 2.48,0 3.904,-0.8 1.424,-0.8 1.6,-2.448 v -9.36 q 0,-0.832 0.832,-0.832 z"
         style="text-align:center;text-anchor:middle;fill:#fefefe"
         id="path1808" />
      <path
         d="m 63.491408,46.471518 q -1.968,0 -3.008,-0.832 -1.04,-0.848 -1.248,-2.576 -0.048,-0.416 0.176,-0.64 0.224,-0.24 0.656,-0.24 0.4,0 0.592,0.208 0.208,0.208 0.272,0.624 0.144,0.992 0.72,1.392 0.592,0.384 1.84,0.384 h 5.248 q 1.488,0 2.048,-0.56 0.56,-0.56 0.56,-2.048 0,-1.504 -0.56,-2.064 -0.56,-0.56 -2.048,-0.56 h -5.184 q -2.08,0 -3.104,-0.992 -1.008,-1.008 -1.008,-3.088 0,-2.128 1.008,-3.12 1.008,-1.008 3.104,-1.008 h 5.024 q 3.616,0 4.016,3.2 0.064,0.416 -0.176,0.656 -0.224,0.224 -0.64,0.224 -0.4,0 -0.608,-0.208 -0.192,-0.208 -0.272,-0.608 -0.112,-0.896 -0.656,-1.232 -0.528,-0.352 -1.664,-0.352 h -5.024 q -1.392,0 -1.92,0.512 -0.512,0.512 -0.512,1.936 0,1.36 0.528,1.888 0.528,0.512 1.904,0.512 h 5.184 q 2.208,0 3.248,1.056 1.04,1.04 1.04,3.248 0,2.192 -1.04,3.248 -1.04,1.04 -3.248,1.04 z"
         style="text-align:center;text-anchor:middle;fill:#fefefe"
         id="path1810" />
      <path
         d="m 81.363418,46.471518 q -1.968,0 -3.008,-0.832 -1.04,-0.848 -1.248,-2.576 -0.048,-0.416 0.176,-0.64 0.224,-0.24 0.656,-0.24 0.4,0 0.592,0.208 0.208,0.208 0.272,0.624 0.144,0.992 0.72,1.392 0.592,0.384 1.84,0.384 h 5.248 q 1.488,0 2.048,-0.56 0.56,-0.56 0.56,-2.048 0,-1.504 -0.56,-2.064 -0.56,-0.56 -2.048,-0.56 h -5.184 q -2.08,0 -3.104,-0.992 -1.008,-1.008 -1.008,-3.088 0,-2.128 1.008,-3.12 1.008,-1.008 3.104,-1.008 h 5.024 q 3.616,0 4.016,3.2 0.064,0.416 -0.176,0.656 -0.224,0.224 -0.64,0.224 -0.4,0 -0.608,-0.208 -0.192,-0.208 -0.272,-0.608 -0.112,-0.896 -0.656,-1.232 -0.528,-0.352 -1.664,-0.352 h -5.024 q -1.392,0 -1.92,0.512 -0.512,0.512 -0.512,1.936 0,1.36 0.528,1.888 0.528,0.512 1.904,0.512 h 5.184 q 2.208,0 3.248,1.056 1.04,1.04 1.04,3.248 0,2.192 -1.04,3.248 -1.04,1.04 -3.248,1.04 z"
         style="text-align:center;text-anchor:middle;fill:#fefefe"
         id="path1812" />
      <path
         d="m 96.403427,28.471518 q -1.104,0 -1.104,-1.136 v -0.72 q 0,-1.104 1.104,-1.104 h 0.72 q 1.072,0 1.072,1.104 v 0.72 q 0,1.136 -1.072,1.136 z m 0.368,18.032 q -0.848,0 -0.848,-0.848 v -13.44 q 0,-0.832 0.848,-0.832 0.832,0 0.832,0.832 v 13.44 q 0,0.848 -0.832,0.848 z"
         style="text-align:center;text-anchor:middle;fill:#fefefe"
         id="path1814" />
      <path
         d="m 108.08343,46.503518 q -2.496,0 -3.664,-1.152 -1.152,-1.168 -1.152,-3.664 0,-2.496 1.168,-3.664 1.168,-1.168 3.648,-1.168 h 7.28 q -0.032,-2.112 -0.96,-2.944 -0.912,-0.848 -3.12,-0.848 h -1.856 q -2.032,0 -2.976,0.432 -0.944,0.432 -1.168,1.472 -0.112,0.4 -0.304,0.592 -0.176,0.176 -0.576,0.176 -0.416,0 -0.656,-0.224 -0.224,-0.24 -0.16,-0.64 0.208,-1.824 1.648,-2.656 1.456,-0.832 4.192,-0.832 h 1.856 q 2.992,0 4.368,1.392 1.392,1.376 1.392,4.368 v 8.512 q 0,0.848 -0.832,0.848 -0.848,0 -0.848,-0.848 v -1.584 q -1.536,2.432 -5.488,2.432 z m 0,-1.68 h 1.792 q 1.552,0 2.72,-0.336 1.184,-0.352 1.904,-1.12 0.72,-0.768 0.864,-2.048 v -2.784 h -7.28 q -1.776,0 -2.464,0.688 -0.672,0.672 -0.672,2.464 0,1.776 0.672,2.464 0.688,0.672 2.464,0.672 z"
         style="text-align:center;text-anchor:middle;fill:#fefefe"
         id="path1816" />
      <path
         d="m 131.61939,46.503518 q -0.848,0 -0.848,-0.848 v -20.512 q 0,-0.832 0.848,-0.832 0.832,0 0.832,0.832 v 8.608 q 1.52,-2.368 5.504,-2.368 h 0.896 q 2.992,0 4.368,1.392 1.392,1.376 1.392,4.368 v 8.512 q 0,0.848 -0.832,0.848 -0.848,0 -0.848,-0.848 v -8.512 q 0,-2.288 -0.912,-3.184 -0.896,-0.896 -3.168,-0.896 h -0.896 q -2.48,0 -3.904,0.784 -1.424,0.784 -1.6,2.448 v 9.36 q 0,0.848 -0.832,0.848 z"
         style="text-align:center;text-anchor:middle;fill:#fefefe"
         id="path1818" />
      <path
         d="m 154.16338,46.503518 q -2.496,0 -3.664,-1.152 -1.152,-1.168 -1.152,-3.664 0,-2.496 1.168,-3.664 1.168,-1.168 3.648,-1.168 h 7.28 q -0.032,-2.112 -0.96,-2.944 -0.912,-0.848 -3.12,-0.848 h -1.856 q -2.032,0 -2.976,0.432 -0.944,0.432 -1.168,1.472 -0.112,0.4 -0.304,0.592 -0.176,0.176 -0.576,0.176 -0.416,0 -0.656,-0.224 -0.224,-0.24 -0.16,-0.64 0.208,-1.824 1.648,-2.656 1.456,-0.832 4.192,-0.832 h 1.856 q 2.992,0 4.368,1.392 1.392,1.376 1.392,4.368 v 8.512 q 0,0.848 -0.832,0.848 -0.848,0 -0.848,-0.848 v -1.584 q -1.536,2.432 -5.488,2.432 z m 0,-1.68 h 1.792 q 1.552,0 2.72,-0.336 1.184,-0.352 1.904,-1.12 0.72,-0.768 0.864,-2.048 v -2.784 h -7.28 q -1.776,0 -2.464,0.688 -0.672,0.672 -0.672,2.464 0,1.776 0.672,2.464 0.688,0.672 2.464,0.672 z"
         style="text-align:center;text-anchor:middle;fill:#fefefe"
         id="path1820" />
      <path
         d="m 172.13136,46.471518 q -1.968,0 -3.008,-0.832 -1.04,-0.848 -1.248,-2.576 -0.048,-0.416 0.176,-0.64 0.224,-0.24 0.656,-0.24 0.4,0 0.592,0.208 0.208,0.208 0.272,0.624 0.144,0.992 0.72,1.392 0.592,0.384 1.84,0.384 h 5.248 q 1.488,0 2.048,-0.56 0.56,-0.56 0.56,-2.048 0,-1.504 -0.56,-2.064 -0.56,-0.56 -2.048,-0.56 h -5.184 q -2.08,0 -3.104,-0.992 -1.008,-1.008 -1.008,-3.088 0,-2.128 1.008,-3.12 1.008,-1.008 3.104,-1.008 h 5.024 q 3.616,0 4.016,3.2 0.064,0.416 -0.176,0.656 -0.224,0.224 -0.64,0.224 -0.4,0 -0.608,-0.208 -0.192,-0.208 -0.272,-0.608 -0.112,-0.896 -0.656,-1.232 -0.528,-0.352 -1.664,-0.352 h -5.024 q -1.392,0 -1.92,0.512 -0.512,0.512 -0.512,1.936 0,1.36 0.528,1.888 0.528,0.512 1.904,0.512 h 5.184 q 2.208,0 3.248,1.056 1.04,1.04 1.04,3.248 0,2.192 -1.04,3.248 -1.04,1.04 -3.248,1.04 z"
         style="text-align:center;text-anchor:middle;fill:#fefefe"
         id="path1822" />
      <path
         d="m 195.20335,28.471518 q -1.104,0 -1.104,-1.136 v -0.72 q 0,-1.104 1.104,-1.104 h 0.72 q 1.072,0 1.072,1.104 v 0.72 q 0,1.136 -1.072,1.136 z m 0.368,18.032 q -0.848,0 -0.848,-0.848 v -13.44 q 0,-0.832 0.848,-0.832 0.832,0 0.832,0.832 v 13.44 q 0,0.848 -0.832,0.848 z"
         style="text-align:center;text-anchor:middle;fill:#fefefe"
         id="path1824" />
      <path
         d="m 203.23536,46.503518 q -0.848,0 -0.848,-0.848 v -13.44 q 0,-0.832 0.848,-0.832 0.832,0 0.832,0.832 v 1.536 q 1.52,-2.368 5.504,-2.368 h 0.896 q 2.992,0 4.368,1.392 1.392,1.376 1.392,4.368 v 8.512 q 0,0.848 -0.832,0.848 -0.848,0 -0.848,-0.848 v -8.512 q 0,-2.288 -0.912,-3.184 -0.896,-0.896 -3.168,-0.896 h -0.896 q -2.48,0 -3.904,0.784 -1.424,0.784 -1.6,2.448 v 9.36 q 0,0.848 -0.832,0.848 z"
         style="text-align:center;text-anchor:middle;fill:#fefefe"
         id="path1826" />
      <path
         d="m 227.41136,45.863518 q -0.176,0.384 -0.432,0.512 -0.256,0.128 -0.592,0.128 -0.704,0 -0.992,-0.656 l -5.936,-13.296 q -0.336,-0.784 0.464,-1.088 0.752,-0.32 1.088,0.448 l 5.92,13.248 h -1.024 l 6.304,-13.264 q 0.176,-0.368 0.464,-0.48 0.288,-0.112 0.656,0.048 0.784,0.352 0.432,1.12 z"
         style="text-align:center;text-anchor:middle;fill:#fefefe"
         id="path1828" />
      <path
         d="m 241.79534,46.503518 q -2.496,0 -3.664,-1.152 -1.152,-1.168 -1.152,-3.664 0,-2.496 1.168,-3.664 1.168,-1.168 3.648,-1.168 h 7.28 q -0.032,-2.112 -0.96,-2.944 -0.912,-0.848 -3.12,-0.848 h -1.856 q -2.032,0 -2.976,0.432 -0.944,0.432 -1.168,1.472 -0.112,0.4 -0.304,0.592 -0.176,0.176 -0.576,0.176 -0.416,0 -0.656,-0.224 -0.224,-0.24 -0.16,-0.64 0.208,-1.824 1.648,-2.656 1.456,-0.832 4.192,-0.832 h 1.856 q 2.992,0 4.368,1.392 1.392,1.376 1.392,4.368 v 8.512 q 0,0.848 -0.832,0.848 -0.848,0 -0.848,-0.848 v -1.584 q -1.536,2.432 -5.488,2.432 z m 0,-1.68 h 1.792 q 1.552,0 2.72,-0.336 1.184,-0.352 1.904,-1.12 0.72,-0.768 0.864,-2.048 v -2.784 h -7.28 q -1.776,0 -2.464,0.688 -0.672,0.672 -0.672,2.464 0,1.776 0.672,2.464 0.688,0.672 2.464,0.672 z"
         style="text-align:center;text-anchor:middle;fill:#fefefe"
         id="path1830" />
      <path
         d="m 261.79532,46.503518 q -2.992,0 -4.384,-1.392 -1.392,-1.392 -1.392,-4.384 v -3.584 q 0,-2.992 1.392,-4.368 1.392,-1.392 4.384,-1.392 h 6.704 v -6.24 q 0,-0.832 0.848,-0.832 0.832,0 0.832,0.832 v 20.512 q 0,0.848 -0.832,0.848 -0.848,0 -0.848,-0.848 v -1.376 q -0.688,1.104 -2.016,1.664 -1.328,0.56 -3.472,0.56 z m 0,-1.68 h 1.216 q 2.496,0 3.984,-0.784 1.504,-0.8 1.504,-2.384 v -8.592 h -6.704 q -2.288,0 -3.2,0.912 -0.896,0.896 -0.896,3.168 v 3.584 q 0,2.288 0.896,3.2 0.912,0.896 3.2,0.896 z"
         style="text-align:center;text-anchor:middle;fill:#fefefe"
         id="path1832" />
      <path
         d="m 277.12333,39.591518 v 1.168 q 0,2.256 0.896,3.168 0.912,0.896 3.2,0.896 h 2.624 q 2.016,0 2.928,-0.512 0.928,-0.528 1.104,-1.808 0.064,-0.4 0.256,-0.608 0.208,-0.208 0.624,-0.208 0.416,0 0.624,0.24 0.224,0.224 0.176,0.64 -0.208,2.016 -1.616,2.976 -1.408,0.96 -4.096,0.96 h -2.624 q -2.992,0 -4.384,-1.376 -1.392,-1.392 -1.392,-4.368 v -3.616 q 0,-3.024 1.392,-4.4 1.392,-1.392 4.384,-1.36 h 2.624 q 2.992,0 4.368,1.392 1.392,1.376 1.392,4.368 v 1.6 q 0,0.848 -0.832,0.848 z m 4.096,-6.528 q -2.288,-0.032 -3.2,0.88 -0.896,0.896 -0.896,3.2 v 0.768 h 10.8 v -0.768 q 0,-2.288 -0.896,-3.184 -0.896,-0.896 -3.184,-0.896 z"
         style="text-align:center;text-anchor:middle;fill:#fefefe"
         id="path1834" />
      <path
         d="m 300.49936,46.503518 q -2.992,0 -4.384,-1.392 -1.392,-1.392 -1.392,-4.384 v -3.584 q 0,-2.992 1.392,-4.368 1.392,-1.392 4.384,-1.392 h 6.704 v -6.24 q 0,-0.832 0.848,-0.832 0.832,0 0.832,0.832 v 20.512 q 0,0.848 -0.832,0.848 -0.848,0 -0.848,-0.848 v -1.376 q -0.688,1.104 -2.016,1.664 -1.328,0.56 -3.472,0.56 z m 0,-1.68 h 1.216 q 2.496,0 3.984,-0.784 1.504,-0.8 1.504,-2.384 v -8.592 h -6.704 q -2.288,0 -3.2,0.912 -0.896,0.896 -0.896,3.168 v 3.584 q 0,2.288 0.896,3.2 0.912,0.896 3.2,0.896 z"
         style="text-align:center;text-anchor:middle;fill:#fefefe"
         id="path1836" />
      <path
         d="m 329.12335,46.503518 q -3.472,0 -5.072,-1.6 -1.6,-1.6 -1.6,-5.072 v -13.104 q 0,-0.384 0.224,-0.608 0.24,-0.24 0.624,-0.24 0.384,0 0.608,0.24 0.224,0.224 0.224,0.608 v 13.104 q 0,1.856 0.48,2.944 0.48,1.088 1.568,1.568 1.088,0.48 2.944,0.48 h 3.84 q 1.84,0 2.928,-0.48 1.088,-0.48 1.568,-1.568 0.48,-1.088 0.48,-2.944 v -13.104 q 0,-0.384 0.224,-0.608 0.24,-0.24 0.624,-0.24 0.384,0 0.608,0.24 0.224,0.224 0.224,0.608 v 13.104 q 0,3.472 -1.6,5.072 -1.584,1.6 -5.056,1.6 z"
         style="text-align:center;text-anchor:middle;fill:#fefefe"
         id="path1838" />
      <path
         d="m 346.29139,46.503518 q -0.848,0 -0.848,-0.848 v -20.512 q 0,-0.832 0.848,-0.832 0.832,0 0.832,0.832 v 13.296 l 8.128,-6.976 q 0.608,-0.544 1.168,0.08 0.544,0.624 -0.08,1.184 l -5.888,5.072 6.4,7.264 q 0.56,0.624 -0.08,1.184 -0.608,0.544 -1.168,-0.08 l -6.448,-7.264 -2.032,1.744 v 5.008 q 0,0.848 -0.832,0.848 z"
         style="text-align:center;text-anchor:middle;fill:#fefefe"
         id="path1840" />
      <path
         d="m 361.61939,46.503518 q -0.848,0 -0.848,-0.848 v -13.44 q 0,-0.832 0.848,-0.832 0.832,0 0.832,0.832 v 2.464 q 0.832,-1.6 2.4,-2.448 1.584,-0.848 3.744,-0.848 0.848,0 0.848,0.832 0,0.848 -0.848,0.848 -2.848,0 -4.416,1.296 -1.568,1.28 -1.728,3.664 v 7.632 q 0,0.848 -0.832,0.848 z"
         style="text-align:center;text-anchor:middle;fill:#fefefe"
         id="path1842" />
      <path
         d="m 376.37139,46.503518 q -2.496,0 -3.664,-1.152 -1.152,-1.168 -1.152,-3.664 0,-2.496 1.168,-3.664 1.168,-1.168 3.648,-1.168 h 7.28 q -0.032,-2.112 -0.96,-2.944 -0.912,-0.848 -3.12,-0.848 h -1.856 q -2.032,0 -2.976,0.432 -0.944,0.432 -1.168,1.472 -0.112,0.4 -0.304,0.592 -0.176,0.176 -0.576,0.176 -0.416,0 -0.656,-0.224 -0.224,-0.24 -0.16,-0.64 0.208,-1.824 1.648,-2.656 1.456,-0.832 4.192,-0.832 h 1.856 q 2.992,0 4.368,1.392 1.392,1.376 1.392,4.368 v 8.512 q 0,0.848 -0.832,0.848 -0.848,0 -0.848,-0.848 v -1.584 q -1.536,2.432 -5.488,2.432 z m 0,-1.68 h 1.792 q 1.552,0 2.72,-0.336 1.184,-0.352 1.904,-1.12 0.72,-0.768 0.864,-2.048 v -2.784 h -7.28 q -1.776,0 -2.464,0.688 -0.672,0.672 -0.672,2.464 0,1.776 0.672,2.464 0.688,0.672 2.464,0.672 z"
         style="text-align:center;text-anchor:middle;fill:#fefefe"
         id="path1844" />
      <path
         d="m 391.50737,28.471518 q -1.104,0 -1.104,-1.136 v -0.72 q 0,-1.104 1.104,-1.104 h 0.72 q 1.072,0 1.072,1.104 v 0.72 q 0,1.136 -1.072,1.136 z m 0.368,18.032 q -0.848,0 -0.848,-0.848 v -13.44 q 0,-0.832 0.848,-0.832 0.832,0 0.832,0.832 v 13.44 q 0,0.848 -0.832,0.848 z"
         style="text-align:center;text-anchor:middle;fill:#fefefe"
         id="path1846" />
      <path
         d="m 399.53937,46.503518 q -0.848,0 -0.848,-0.848 v -13.44 q 0,-0.832 0.848,-0.832 0.832,0 0.832,0.832 v 1.536 q 1.52,-2.368 5.504,-2.368 h 0.896 q 2.992,0 4.368,1.392 1.392,1.376 1.392,4.368 v 8.512 q 0,0.848 -0.832,0.848 -0.848,0 -0.848,-0.848 v -8.512 q 0,-2.288 -0.912,-3.184 -0.896,-0.896 -3.168,-0.896 h -0.896 q -2.48,0 -3.904,0.784 -1.424,0.784 -1.6,2.448 v 9.36 q 0,0.848 -0.832,0.848 z"
         style="text-align:center;text-anchor:middle;fill:#fefefe"
         id="path1848" />
      <path
         d="m 419.47538,39.591518 v 1.168 q 0,2.256 0.896,3.168 0.912,0.896 3.2,0.896 h 2.624 q 2.016,0 2.928,-0.512 0.928,-0.528 1.104,-1.808 0.064,-0.4 0.256,-0.608 0.208,-0.208 0.624,-0.208 0.416,0 0.624,0.24 0.224,0.224 0.176,0.64 -0.208,2.016 -1.616,2.976 -1.408,0.96 -4.096,0.96 h -2.624 q -2.992,0 -4.384,-1.376 -1.392,-1.392 -1.392,-4.368 v -3.616 q 0,-3.024 1.392,-4.4 1.392,-1.392 4.384,-1.36 h 2.624 q 2.992,0 4.368,1.392 1.392,1.376 1.392,4.368 v 1.6 q 0,0.848 -0.832,0.848 z m 4.096,-6.528 q -2.288,-0.032 -3.2,0.88 -0.896,0.896 -0.896,3.2 v 0.768 h 10.8 v -0.768 q 0,-2.288 -0.896,-3.184 -0.896,-0.896 -3.184,-0.896 z"
         style="text-align:center;text-anchor:middle;fill:#fefefe"
         id="path1850" />
      <path
         d="m 450.03539,46.503518 q -2.496,0 -3.664,-1.152 -1.152,-1.168 -1.152,-3.664 0,-2.496 1.168,-3.664 1.168,-1.168 3.648,-1.168 h 7.28 q -0.032,-2.112 -0.96,-2.944 -0.912,-0.848 -3.12,-0.848 h -1.856 q -2.032,0 -2.976,0.432 -0.944,0.432 -1.168,1.472 -0.112,0.4 -0.304,0.592 -0.176,0.176 -0.576,0.176 -0.416,0 -0.656,-0.224 -0.224,-0.24 -0.16,-0.64 0.208,-1.824 1.648,-2.656 1.456,-0.832 4.192,-0.832 h 1.856 q 2.992,0 4.368,1.392 1.392,1.376 1.392,4.368 v 8.512 q 0,0.848 -0.832,0.848 -0.848,0 -0.848,-0.848 v -1.584 q -1.536,2.432 -5.488,2.432 z m 0,-1.68 h 1.792 q 1.552,0 2.72,-0.336 1.184,-0.352 1.904,-1.12 0.72,-0.768 0.864,-2.048 v -2.784 h -7.28 q -1.776,0 -2.464,0.688 -0.672,0.672 -0.672,2.464 0,1.776 0.672,2.464 0.688,0.672 2.464,0.672 z"
         style="text-align:center;text-anchor:middle;fill:#fefefe"
         id="path1852" />
      <path
         d="m 465.53937,46.503518 q -0.848,0 -0.848,-0.848 v -13.44 q 0,-0.832 0.848,-0.832 0.832,0 0.832,0.832 v 1.536 q 1.52,-2.368 5.504,-2.368 h 0.896 q 2.992,0 4.368,1.392 1.392,1.376 1.392,4.368 v 8.512 q 0,0.848 -0.832,0.848 -0.848,0 -0.848,-0.848 v -8.512 q 0,-2.288 -0.912,-3.184 -0.896,-0.896 -3.168,-0.896 h -0.896 q -2.48,0 -3.904,0.784 -1.424,0.784 -1.6,2.448 v 9.36 q 0,0.848 -0.832,0.848 z"
         style="text-align:center;text-anchor:middle;fill:#fefefe"
         id="path1854" />
      <path
         d="m 489.57138,46.503518 q -2.992,0 -4.384,-1.392 -1.392,-1.392 -1.392,-4.384 v -3.584 q 0,-2.992 1.392,-4.368 1.392,-1.392 4.384,-1.392 h 6.704 v -6.24 q 0,-0.832 0.848,-0.832 0.832,0 0.832,0.832 v 20.512 q 0,0.848 -0.832,0.848 -0.848,0 -0.848,-0.848 v -1.376 q -0.688,1.104 -2.016,1.664 -1.328,0.56 -3.472,0.56 z m 0,-1.68 h 1.216 q 2.496,0 3.984,-0.784 1.504,-0.8 1.504,-2.384 v -8.592 h -6.704 q -2.288,0 -3.2,0.912 -0.896,0.896 -0.896,3.168 v 3.584 q 0,2.288 0.896,3.2 0.912,0.896 3.2,0.896 z"
         style="text-align:center;text-anchor:middle;fill:#fefefe"
         id="path1856" />
      <path
         d="m 516.17938,46.503518 q -2.496,0 -3.664,-1.152 -1.152,-1.168 -1.152,-3.664 0,-2.496 1.168,-3.664 1.168,-1.168 3.648,-1.168 h 7.28 q -0.032,-2.112 -0.96,-2.944 -0.912,-0.848 -3.12,-0.848 h -1.856 q -2.032,0 -2.976,0.432 -0.944,0.432 -1.168,1.472 -0.112,0.4 -0.304,0.592 -0.176,0.176 -0.576,0.176 -0.416,0 -0.656,-0.224 -0.224,-0.24 -0.16,-0.64 0.208,-1.824 1.648,-2.656 1.456,-0.832 4.192,-0.832 h 1.856 q 2.992,0 4.368,1.392 1.392,1.376 1.392,4.368 v 8.512 q 0,0.848 -0.832,0.848 -0.848,0 -0.848,-0.848 v -1.584 q -1.536,2.432 -5.488,2.432 z m 0,-1.68 h 1.792 q 1.552,0 2.72,-0.336 1.184,-0.352 1.904,-1.12 0.72,-0.768 0.864,-2.048 v -2.784 h -7.28 q -1.776,0 -2.464,0.688 -0.672,0.672 -0.672,2.464 0,1.776 0.672,2.464 0.688,0.672 2.464,0.672 z"
         style="text-align:center;text-anchor:middle;fill:#fefefe"
         id="path1858" />
      <path
         d="m 535.23535,46.503518 q -2.272,0 -3.344,-1.056 -1.056,-1.056 -1.056,-3.312 v -16.992 q 0,-0.832 0.848,-0.832 0.832,0 0.832,0.832 v 16.992 q 0,1.552 0.576,2.128 0.576,0.56 2.128,0.56 0.864,0 0.864,0.832 0.016,0.848 -0.848,0.848 z"
         style="text-align:center;text-anchor:middle;fill:#fefefe"
         id="path1860" />
      <path
         d="m 540.05133,46.503518 q -0.848,0 -0.848,-0.848 v -13.44 q 0,-0.832 0.848,-0.832 0.832,0 0.832,0.832 v 2.464 q 0.832,-1.6 2.4,-2.448 1.584,-0.848 3.744,-0.848 0.848,0 0.848,0.832 0,0.848 -0.848,0.848 -2.848,0 -4.416,1.296 -1.568,1.28 -1.728,3.664 v 7.632 q 0,0.848 -0.832,0.848 z"
         style="text-align:center;text-anchor:middle;fill:#fefefe"
         id="path1862" />
      <path
         d="m 551.87535,39.591518 v 1.168 q 0,2.256 0.896,3.168 0.912,0.896 3.2,0.896 h 2.624 q 2.016,0 2.928,-0.512 0.928,-0.528 1.104,-1.808 0.064,-0.4 0.256,-0.608 0.208,-0.208 0.624,-0.208 0.416,0 0.624,0.24 0.224,0.224 0.176,0.64 -0.208,2.016 -1.616,2.976 -1.408,0.96 -4.096,0.96 h -2.624 q -2.992,0 -4.384,-1.376 -1.392,-1.392 -1.392,-4.368 v -3.616 q 0,-3.024 1.392,-4.4 1.392,-1.392 4.384,-1.36 h 2.624 q 2.992,0 4.368,1.392 1.392,1.376 1.392,4.368 v 1.6 q 0,0.848 -0.832,0.848 z m 4.096,-6.528 q -2.288,-0.032 -3.2,0.88 -0.896,0.896 -0.896,3.2 v 0.768 h 10.8 v -0.768 q 0,-2.288 -0.896,-3.184 -0.896,-0.896 -3.184,-0.896 z"
         style="text-align:center;text-anchor:middle;fill:#fefefe"
         id="path1864" />
      <path
         d="m 574.40337,46.503518 q -2.496,0 -3.664,-1.152 -1.152,-1.168 -1.152,-3.664 0,-2.496 1.168,-3.664 1.168,-1.168 3.648,-1.168 h 7.28 q -0.032,-2.112 -0.96,-2.944 -0.912,-0.848 -3.12,-0.848 h -1.856 q -2.032,0 -2.976,0.432 -0.944,0.432 -1.168,1.472 -0.112,0.4 -0.304,0.592 -0.176,0.176 -0.576,0.176 -0.416,0 -0.656,-0.224 -0.224,-0.24 -0.16,-0.64 0.208,-1.824 1.648,-2.656 1.456,-0.832 4.192,-0.832 h 1.856 q 2.992,0 4.368,1.392 1.392,1.376 1.392,4.368 v 8.512 q 0,0.848 -0.832,0.848 -0.848,0 -0.848,-0.848 v -1.584 q -1.536,2.432 -5.488,2.432 z m 0,-1.68 h 1.792 q 1.552,0 2.72,-0.336 1.184,-0.352 1.904,-1.12 0.72,-0.768 0.864,-2.048 v -2.784 h -7.28 q -1.776,0 -2.464,0.688 -0.672,0.672 -0.672,2.464 0,1.776 0.672,2.464 0.688,0.672 2.464,0.672 z"
         style="text-align:center;text-anchor:middle;fill:#fefefe"
         id="path1866" />
      <path
         d="m 594.40335,46.503518 q -2.992,0 -4.384,-1.392 -1.392,-1.392 -1.392,-4.384 v -3.584 q 0,-2.992 1.392,-4.368 1.392,-1.392 4.384,-1.392 h 6.704 v -6.24 q 0,-0.832 0.848,-0.832 0.832,0 0.832,0.832 v 20.512 q 0,0.848 -0.832,0.848 -0.848,0 -0.848,-0.848 v -1.376 q -0.688,1.104 -2.016,1.664 -1.328,0.56 -3.472,0.56 z m 0,-1.68 h 1.216 q 2.496,0 3.984,-0.784 1.504,-0.8 1.504,-2.384 v -8.592 h -6.704 q -2.288,0 -3.2,0.912 -0.896,0.896 -0.896,3.168 v 3.584 q 0,2.288 0.896,3.2 0.912,0.896 3.2,0.896 z"
         style="text-align:center;text-anchor:middle;fill:#fefefe"
         id="path1868" />
      <path
         d="m 612.29136,52.903518 q -2.096,0 -3.104,-1.008 -0.992,-1.008 -0.992,-3.136 0,-0.832 0.832,-0.832 0.848,0 0.848,0.832 0,1.44 0.512,1.952 0.512,0.512 1.904,0.512 h 5.536 q 1.408,0 1.92,-0.512 0.512,-0.512 0.512,-1.952 v -4.4 q -0.912,1.2 -2.288,1.68 -1.376,0.48 -3.216,0.48 h -0.896 q -2.944,0 -4.304,-1.36 -1.36,-1.36 -1.36,-4.272 v -8.688 q 0,-0.848 0.832,-0.848 0.848,0 0.848,0.848 v 8.688 q 0,2.224 0.864,3.088 0.88,0.864 3.12,0.864 h 0.896 q 2.8,0 4.144,-0.976 1.36,-0.992 1.36,-2.976 v -8.688 q 0,-0.848 0.832,-0.848 0.848,0 0.848,0.848 v 16.56 q 0,2.128 -1.008,3.136 -0.992,1.008 -3.104,1.008 z"
         style="text-align:center;text-anchor:middle;fill:#fefefe"
         id="path1870" />
      <path
         d="m 636.80335,46.503518 q -0.848,0 -0.848,-0.848 v -20.512 q 0,-0.832 0.848,-0.832 0.832,0 0.832,0.832 v 13.296 l 8.128,-6.976 q 0.608,-0.544 1.168,0.08 0.544,0.624 -0.08,1.184 l -5.888,5.072 6.4,7.264 q 0.56,0.624 -0.08,1.184 -0.608,0.544 -1.168,-0.08 l -6.448,-7.264 -2.032,1.744 v 5.008 q 0,0.848 -0.832,0.848 z"
         style="text-align:center;text-anchor:middle;fill:#fefefe"
         id="path1872" />
      <path
         d="m 651.76335,28.471518 q -1.104,0 -1.104,-1.136 v -0.72 q 0,-1.104 1.104,-1.104 h 0.72 q 1.072,0 1.072,1.104 v 0.72 q 0,1.136 -1.072,1.136 z m 0.368,18.032 q -0.848,0 -0.848,-0.848 v -13.44 q 0,-0.832 0.848,-0.832 0.832,0 0.832,0.832 v 13.44 q 0,0.848 -0.832,0.848 z"
         style="text-align:center;text-anchor:middle;fill:#fefefe"
         id="path1874" />
      <path
         d="m 663.34735,46.503518 q -2.272,0 -3.344,-1.056 -1.056,-1.056 -1.056,-3.312 v -16.992 q 0,-0.832 0.848,-0.832 0.832,0 0.832,0.832 v 16.992 q 0,1.552 0.576,2.128 0.576,0.56 2.128,0.56 0.864,0 0.864,0.832 0.016,0.848 -0.848,0.848 z"
         style="text-align:center;text-anchor:middle;fill:#fefefe"
         id="path1876" />
      <path
         d="m 672.67536,46.503518 q -2.272,0 -3.344,-1.056 -1.056,-1.056 -1.056,-3.312 v -16.992 q 0,-0.832 0.848,-0.832 0.832,0 0.832,0.832 v 16.992 q 0,1.552 0.576,2.128 0.576,0.56 2.128,0.56 0.864,0 0.864,0.832 0.016,0.848 -0.848,0.848 z"
         style="text-align:center;text-anchor:middle;fill:#fefefe"
         id="path1878" />
      <path
         d="m 678.21134,39.591518 v 1.168 q 0,2.256 0.896,3.168 0.912,0.896 3.2,0.896 h 2.624 q 2.016,0 2.928,-0.512 0.928,-0.528 1.104,-1.808 0.064,-0.4 0.256,-0.608 0.208,-0.208 0.624,-0.208 0.416,0 0.624,0.24 0.224,0.224 0.176,0.64 -0.208,2.016 -1.616,2.976 -1.408,0.96 -4.096,0.96 h -2.624 q -2.992,0 -4.384,-1.376 -1.392,-1.392 -1.392,-4.368 v -3.616 q 0,-3.024 1.392,-4.4 1.392,-1.392 4.384,-1.36 h 2.624 q 2.992,0 4.368,1.392 1.392,1.376 1.392,4.368 v 1.6 q 0,0.848 -0.832,0.848 z m 4.096,-6.528 q -2.288,-0.032 -3.2,0.88 -0.896,0.896 -0.896,3.2 v 0.768 h 10.8 v -0.768 q 0,-2.288 -0.896,-3.184 -0.896,-0.896 -3.184,-0.896 z"
         style="text-align:center;text-anchor:middle;fill:#fefefe"
         id="path1880" />
      <path
         d="m 701.58737,46.503518 q -2.992,0 -4.384,-1.392 -1.392,-1.392 -1.392,-4.384 v -3.584 q 0,-2.992 1.392,-4.368 1.392,-1.392 4.384,-1.392 h 6.704 v -6.24 q 0,-0.832 0.848,-0.832 0.832,0 0.832,0.832 v 20.512 q 0,0.848 -0.832,0.848 -0.848,0 -0.848,-0.848 v -1.376 q -0.688,1.104 -2.016,1.664 -1.328,0.56 -3.472,0.56 z m 0,-1.68 h 1.216 q 2.496,0 3.984,-0.784 1.504,-0.8 1.504,-2.384 v -8.592 h -6.704 q -2.288,0 -3.2,0.912 -0.896,0.896 -0.896,3.168 v 3.584 q 0,2.288 0.896,3.2 0.912,0.896 3.2,0.896 z"
         style="text-align:center;text-anchor:middle;fill:#fefefe"
         id="path1882" />
      <path
         d="m 729.87537,46.503518 q -2.944,0 -4.304,-1.36 -1.36,-1.36 -1.36,-4.288 v -7.792 h -1.904 q -0.848,0 -0.848,-0.848 0,-0.832 0.848,-0.832 h 1.904 v -3.44 q 0,-0.848 0.832,-0.848 0.848,0 0.848,0.848 v 3.44 h 4.016 q 0.832,0 0.832,0.832 0,0.848 -0.832,0.848 h -4.016 v 7.792 q 0,2.24 0.864,3.104 0.88,0.864 3.12,0.864 0.464,0 0.656,0.208 0.208,0.208 0.208,0.624 0,0.848 -0.864,0.848 z"
         style="text-align:center;text-anchor:middle;fill:#fefefe"
         id="path1884" />
      <path
         d="m 735.13932,39.591518 v 1.168 q 0,2.256 0.896,3.168 0.912,0.896 3.2,0.896 h 2.624 q 2.016,0 2.928,-0.512 0.928,-0.528 1.104,-1.808 0.064,-0.4 0.256,-0.608 0.208,-0.208 0.624,-0.208 0.416,0 0.624,0.24 0.224,0.224 0.176,0.64 -0.208,2.016 -1.616,2.976 -1.408,0.96 -4.096,0.96 h -2.624 q -2.992,0 -4.384,-1.376 -1.392,-1.392 -1.392,-4.368 v -3.616 q 0,-3.024 1.392,-4.4 1.392,-1.392 4.384,-1.36 h 2.624 q 2.992,0 4.368,1.392 1.392,1.376 1.392,4.368 v 1.6 q 0,0.848 -0.832,0.848 z m 4.096,-6.528 q -2.288,-0.032 -3.2,0.88 -0.896,0.896 -0.896,3.2 v 0.768 h 10.8 v -0.768 q 0,-2.288 -0.896,-3.184 -0.896,-0.896 -3.184,-0.896 z"
         style="text-align:center;text-anchor:middle;fill:#fefefe"
         id="path1886" />
      <path
         d="m 754.01935,46.503518 q -0.848,0 -0.848,-0.848 v -13.44 q 0,-0.832 0.848,-0.832 0.832,0 0.832,0.832 v 1.536 q 1.52,-2.368 5.504,-2.368 h 0.896 q 2.992,0 4.368,1.392 1.392,1.376 1.392,4.368 v 8.512 q 0,0.848 -0.832,0.848 -0.848,0 -0.848,-0.848 v -8.512 q 0,-2.288 -0.912,-3.184 -0.896,-0.896 -3.168,-0.896 h -0.896 q -2.48,0 -3.904,0.784 -1.424,0.784 -1.6,2.448 v 9.36 q 0,0.848 -0.832,0.848 z"
         style="text-align:center;text-anchor:middle;fill:#fefefe"
         id="path1888" />
      <path
         d="m 776.01936,46.471518 q -1.968,0 -3.008,-0.832 -1.04,-0.848 -1.248,-2.576 -0.048,-0.416 0.176,-0.64 0.224,-0.24 0.656,-0.24 0.4,0 0.592,0.208 0.208,0.208 0.272,0.624 0.144,0.992 0.72,1.392 0.592,0.384 1.84,0.384 h 5.248 q 1.488,0 2.048,-0.56 0.56,-0.56 0.56,-2.048 0,-1.504 -0.56,-2.064 -0.56,-0.56 -2.048,-0.56 h -5.184 q -2.08,0 -3.104,-0.992 -1.008,-1.008 -1.008,-3.088 0,-2.128 1.008,-3.12 1.008,-1.008 3.104,-1.008 h 5.024 q 3.616,0 4.016,3.2 0.064,0.416 -0.176,0.656 -0.224,0.224 -0.64,0.224 -0.4,0 -0.608,-0.208 -0.192,-0.208 -0.272,-0.608 -0.112,-0.896 -0.656,-1.232 -0.528,-0.352 -1.664,-0.352 h -5.024 q -1.392,0 -1.92,0.512 -0.512,0.512 -0.512,1.936 0,1.36 0.528,1.888 0.528,0.512 1.904,0.512 h 5.184 q 2.208,0 3.248,1.056 1.04,1.04 1.04,3.248 0,2.192 -1.04,3.248 -1.04,1.04 -3.248,1.04 z"
         style="text-align:center;text-anchor:middle;fill:#fefefe"
         id="path1890" />
      <path
         d="m 803.95535,46.503518 q -2.992,0 -4.384,-1.376 -1.392,-1.392 -1.392,-4.368 v -3.616 q 0,-3.024 1.392,-4.4 1.392,-1.392 4.384,-1.36 h 2.624 q 2.992,0 4.368,1.392 1.392,1.376 1.392,4.368 v 3.584 q 0,2.992 -1.392,4.384 -1.376,1.392 -4.368,1.392 z m -4.096,-5.744 q 0,2.256 0.896,3.168 0.912,0.896 3.2,0.896 h 2.624 q 2.288,0 3.184,-0.896 0.896,-0.912 0.896,-3.2 v -3.584 q 0,-2.288 -0.896,-3.184 -0.896,-0.896 -3.184,-0.896 h -2.624 q -1.536,-0.016 -2.432,0.368 -0.896,0.384 -1.28,1.28 -0.384,0.896 -0.384,2.432 z"
         style="text-align:center;text-anchor:middle;fill:#fefefe"
         id="path1892" />
      <path
         d="m 819.01138,46.503518 q -0.848,0 -0.848,-0.848 v -12.592 h -1.344 q -0.848,0 -0.848,-0.848 0,-0.832 0.848,-0.832 h 1.344 v -1.408 q 0,-2.944 1.36,-4.304 1.376,-1.36 4.32,-1.36 0.816,0 0.816,0.832 0,0.848 -0.816,0.848 -2.24,0 -3.12,0.88 -0.88,0.864 -0.88,3.104 v 1.408 h 3.968 q 0.848,0 0.848,0.832 0,0.848 -0.848,0.848 h -3.968 v 12.592 q 0,0.848 -0.832,0.848 z"
         style="text-align:center;text-anchor:middle;fill:#fefefe"
         id="path1894" />
      <path
         d="m 842.61139,46.503518 q -2.944,0 -4.304,-1.36 -1.36,-1.36 -1.36,-4.288 v -7.792 h -1.904 q -0.848,0 -0.848,-0.848 0,-0.832 0.848,-0.832 h 1.904 v -3.44 q 0,-0.848 0.832,-0.848 0.848,0 0.848,0.848 v 3.44 h 4.016 q 0.832,0 0.832,0.832 0,0.848 -0.832,0.848 h -4.016 v 7.792 q 0,2.24 0.864,3.104 0.88,0.864 3.12,0.864 0.464,0 0.656,0.208 0.208,0.208 0.208,0.624 0,0.848 -0.864,0.848 z"
         style="text-align:center;text-anchor:middle;fill:#fefefe"
         id="path1896" />
      <path
         d="m 848.75537,46.503518 q -0.848,0 -0.848,-0.848 v -20.512 q 0,-0.832 0.848,-0.832 0.832,0 0.832,0.832 v 8.608 q 1.52,-2.368 5.504,-2.368 h 0.896 q 2.992,0 4.368,1.392 1.392,1.376 1.392,4.368 v 8.512 q 0,0.848 -0.832,0.848 -0.848,0 -0.848,-0.848 v -8.512 q 0,-2.288 -0.912,-3.184 -0.896,-0.896 -3.168,-0.896 h -0.896 q -2.48,0 -3.904,0.784 -1.424,0.784 -1.6,2.448 v 9.36 q 0,0.848 -0.832,0.848 z"
         style="text-align:center;text-anchor:middle;fill:#fefefe"
         id="path1898" />
      <path
         d="m 872.78739,46.503518 q -2.992,0 -4.384,-1.376 -1.392,-1.392 -1.392,-4.368 v -3.616 q 0,-3.024 1.392,-4.4 1.392,-1.392 4.384,-1.36 h 2.624 q 2.992,0 4.368,1.392 1.392,1.376 1.392,4.368 v 3.584 q 0,2.992 -1.392,4.384 -1.376,1.392 -4.368,1.392 z m -4.096,-5.744 q 0,2.256 0.896,3.168 0.912,0.896 3.2,0.896 h 2.624 q 2.288,0 3.184,-0.896 0.896,-0.912 0.896,-3.2 v -3.584 q 0,-2.288 -0.896,-3.184 -0.896,-0.896 -3.184,-0.896 h -2.624 q -1.536,-0.016 -2.432,0.368 -0.896,0.384 -1.28,1.28 -0.384,0.896 -0.384,2.432 z"
         style="text-align:center;text-anchor:middle;fill:#fefefe"
         id="path1900" />
      <path
         d="m 899.42741,31.383518 q 0.848,0 0.848,0.832 v 13.44 q 0,0.848 -0.848,0.848 -0.832,0 -0.832,-0.848 v -1.52 q -1.52,2.368 -5.504,2.368 h -0.896 q -2.992,0 -4.384,-1.392 -1.376,-1.392 -1.376,-4.384 v -8.512 q 0,-0.832 0.832,-0.832 0.848,0 0.848,0.832 v 8.512 q 0,2.288 0.896,3.2 0.912,0.896 3.184,0.896 h 0.896 q 2.48,0 3.904,-0.8 1.424,-0.8 1.6,-2.448 v -9.36 q 0,-0.832 0.832,-0.832 z"
         style="text-align:center;text-anchor:middle;fill:#fefefe"
         id="path1902" />
      <path
         d="m 909.57143,46.471518 q -1.968,0 -3.008,-0.832 -1.04,-0.848 -1.248,-2.576 -0.048,-0.416 0.176,-0.64 0.224,-0.24 0.656,-0.24 0.4,0 0.592,0.208 0.208,0.208 0.272,0.624 0.144,0.992 0.72,1.392 0.592,0.384 1.84,0.384 h 5.248 q 1.488,0 2.048,-0.56 0.56,-0.56 0.56,-2.048 0,-1.504 -0.56,-2.064 -0.56,-0.56 -2.048,-0.56 h -5.184 q -2.08,0 -3.104,-0.992 -1.008,-1.008 -1.008,-3.088 0,-2.128 1.008,-3.12 1.008,-1.008 3.104,-1.008 h 5.024 q 3.616,0 4.016,3.2 0.064,0.416 -0.176,0.656 -0.224,0.224 -0.64,0.224 -0.4,0 -0.608,-0.208 -0.192,-0.208 -0.272,-0.608 -0.112,-0.896 -0.656,-1.232 -0.528,-0.352 -1.664,-0.352 h -5.024 q -1.392,0 -1.92,0.512 -0.512,0.512 -0.512,1.936 0,1.36 0.528,1.888 0.528,0.512 1.904,0.512 h 5.184 q 2.208,0 3.248,1.056 1.04,1.04 1.04,3.248 0,2.192 -1.04,3.248 -1.04,1.04 -3.248,1.04 z"
         style="text-align:center;text-anchor:middle;fill:#fefefe"
         id="path1904" />
      <path
         d="m 928.62743,46.503518 q -2.496,0 -3.664,-1.152 -1.152,-1.168 -1.152,-3.664 0,-2.496 1.168,-3.664 1.168,-1.168 3.648,-1.168 h 7.28 q -0.032,-2.112 -0.96,-2.944 -0.912,-0.848 -3.12,-0.848 h -1.856 q -2.032,0 -2.976,0.432 -0.944,0.432 -1.168,1.472 -0.112,0.4 -0.304,0.592 -0.176,0.176 -0.576,0.176 -0.416,0 -0.656,-0.224 -0.224,-0.24 -0.16,-0.64 0.208,-1.824 1.648,-2.656 1.456,-0.832 4.192,-0.832 h 1.856 q 2.992,0 4.368,1.392 1.392,1.376 1.392,4.368 v 8.512 q 0,0.848 -0.832,0.848 -0.848,0 -0.848,-0.848 v -1.584 q -1.536,2.432 -5.488,2.432 z m 0,-1.68 h 1.792 q 1.552,0 2.72,-0.336 1.184,-0.352 1.904,-1.12 0.72,-0.768 0.864,-2.048 v -2.784 h -7.28 q -1.776,0 -2.464,0.688 -0.672,0.672 -0.672,2.464 0,1.776 0.672,2.464 0.688,0.672 2.464,0.672 z"
         style="text-align:center;text-anchor:middle;fill:#fefefe"
         id="path1906" />
      <path
         d="m 944.13141,46.503518 q -0.848,0 -0.848,-0.848 v -13.44 q 0,-0.832 0.848,-0.832 0.832,0 0.832,0.832 v 1.536 q 1.52,-2.368 5.504,-2.368 h 0.896 q 2.992,0 4.368,1.392 1.392,1.376 1.392,4.368 v 8.512 q 0,0.848 -0.832,0.848 -0.848,0 -0.848,-0.848 v -8.512 q 0,-2.288 -0.912,-3.184 -0.896,-0.896 -3.168,-0.896 h -0.896 q -2.48,0 -3.904,0.784 -1.424,0.784 -1.6,2.448 v 9.36 q 0,0.848 -0.832,0.848 z"
         style="text-align:center;text-anchor:middle;fill:#fefefe"
         id="path1908" />
      <path
         d="m 968.16342,46.503518 q -2.992,0 -4.384,-1.392 -1.392,-1.392 -1.392,-4.384 v -3.584 q 0,-2.992 1.392,-4.368 1.392,-1.392 4.384,-1.392 h 6.704 v -6.24 q 0,-0.832 0.848,-0.832 0.832,0 0.832,0.832 v 20.512 q 0,0.848 -0.832,0.848 -0.848,0 -0.848,-0.848 v -1.376 q -0.688,1.104 -2.016,1.664 -1.328,0.56 -3.472,0.56 z m 0,-1.68 h 1.216 q 2.496,0 3.984,-0.784 1.504,-0.8 1.504,-2.384 v -8.592 h -6.704 q -2.288,0 -3.2,0.912 -0.896,0.896 -0.896,3.168 v 3.584 q 0,2.288 0.896,3.2 0.912,0.896 3.2,0.896 z"
         style="text-align:center;text-anchor:middle;fill:#fefefe"
         id="path1910" />
      <path
         d="m 985.55543,46.471518 q -1.968,0 -3.008,-0.832 -1.04,-0.848 -1.248,-2.576 -0.048,-0.416 0.176,-0.64 0.224,-0.24 0.656,-0.24 0.4,0 0.592,0.208 0.208,0.208 0.272,0.624 0.144,0.992 0.72,1.392 0.592,0.384 1.84,0.384 h 5.248 q 1.488,0 2.048,-0.56 0.56,-0.56 0.56,-2.048 0,-1.504 -0.56,-2.064 -0.56,-0.56 -2.048,-0.56 h -5.184 q -2.08,0 -3.104,-0.992 -1.008,-1.008 -1.008,-3.088 0,-2.128 1.008,-3.12 1.008,-1.008 3.104,-1.008 h 5.024 q 3.616,0 4.016,3.2 0.064,0.416 -0.176,0.656 -0.224,0.224 -0.64,0.224 -0.4,0 -0.608,-0.208 -0.192,-0.208 -0.272,-0.608 -0.112,-0.896 -0.656,-1.232 -0.528,-0.352 -1.664,-0.352 h -5.024 q -1.392,0 -1.92,0.512 -0.512,0.512 -0.512,1.936 0,1.36 0.528,1.888 0.528,0.512 1.904,0.512 h 5.184 q 2.208,0 3.248,1.056 1.04,1.04 1.04,3.248 0,2.192 -1.04,3.248 -1.04,1.04 -3.248,1.04 z"
         style="text-align:center;text-anchor:middle;fill:#fefefe"
         id="path1912" />
      <path
         d="m 49.003389,86.503518 q -2.992,0 -4.384,-1.376 -1.392,-1.392 -1.392,-4.368 v -3.616 q 0,-3.024 1.392,-4.4 1.392,-1.392 4.384,-1.36 h 2.624 q 2.992,0 4.368,1.392 1.392,1.376 1.392,4.368 v 3.584 q 0,2.992 -1.392,4.384 -1.376,1.392 -4.368,1.392 z m -4.096,-5.744 q 0,2.256 0.896,3.168 0.912,0.896 3.2,0.896 h 2.624 q 2.288,0 3.184,-0.896 0.896,-0.912 0.896,-3.2 v -3.584 q 0,-2.288 -0.896,-3.184 -0.896,-0.896 -3.184,-0.896 h -2.624 q -1.536,-0.016 -2.432,0.368 -0.896,0.384 -1.28,1.28 -0.384,0.896 -0.384,2.432 z"
         style="text-align:center;text-anchor:middle;fill:#fefefe"
         id="path1914" />
      <path
         d="m 64.059418,86.503518 q -0.848,0 -0.848,-0.848 v -12.592 h -1.344 q -0.848,0 -0.848,-0.848 0,-0.832 0.848,-0.832 h 1.344 v -1.408 q 0,-2.944 1.36,-4.304 1.376,-1.36 4.32,-1.36 0.816,0 0.816,0.832 0,0.848 -0.816,0.848 -2.24,0 -3.12,0.88 -0.88,0.864 -0.88,3.104 v 1.408 h 3.968 q 0.848,0 0.848,0.832 0,0.848 -0.848,0.848 h -3.968 v 12.592 q 0,0.848 -0.832,0.848 z"
         style="text-align:center;text-anchor:middle;fill:#fefefe"
         id="path1916" />
      <path
         d="m 86.827425,86.503518 q -2.992,0 -4.384,-1.392 -1.392,-1.392 -1.392,-4.384 v -3.616 q 0,-2.992 1.376,-4.368 1.392,-1.392 4.4,-1.36 h 2.624 q 2.352,0 3.584,0.8 1.248,0.784 1.488,2.48 0.048,0.432 -0.192,0.656 -0.224,0.224 -0.64,0.224 -0.384,0 -0.576,-0.192 -0.192,-0.208 -0.288,-0.592 -0.176,-0.928 -0.944,-1.312 -0.768,-0.384 -2.432,-0.384 h -2.624 q -2.288,-0.032 -3.2,0.864 -0.896,0.88 -0.896,3.184 v 3.616 q 0,2.288 0.896,3.2 0.912,0.896 3.2,0.896 h 2.624 q 1.664,0 2.432,-0.384 0.768,-0.384 0.944,-1.328 0.096,-0.384 0.288,-0.576 0.192,-0.208 0.576,-0.208 0.416,0 0.64,0.24 0.24,0.224 0.192,0.64 -0.24,1.696 -1.488,2.496 -1.232,0.8 -3.584,0.8 z"
         style="text-align:center;text-anchor:middle;fill:#fefefe"
         id="path1918" />
      <path
         d="m 100.2354,68.471518 q -1.104003,0 -1.104003,-1.136 v -0.72 q 0,-1.104 1.104003,-1.104 h 0.72 q 1.072,0 1.072,1.104 v 0.72 q 0,1.136 -1.072,1.136 z m 0.368,18.032 q -0.848003,0 -0.848003,-0.848 v -13.44 q 0,-0.832 0.848003,-0.832 0.832,0 0.832,0.832 v 13.44 q 0,0.848 -0.832,0.848 z"
         style="text-align:center;text-anchor:middle;fill:#fefefe"
         id="path1920" />
      <path
         d="m 113.2274,85.863518 q -0.176,0.384 -0.432,0.512 -0.256,0.128 -0.592,0.128 -0.704,0 -0.992,-0.656 l -5.936,-13.296 q -0.336,-0.784 0.464,-1.088 0.752,-0.32 1.088,0.448 l 5.92,13.248 h -1.024 l 6.304,-13.264 q 0.176,-0.368 0.464,-0.48 0.288,-0.112 0.656,0.048 0.784,0.352 0.432,1.12 z"
         style="text-align:center;text-anchor:middle;fill:#fefefe"
         id="path1922" />
      <path
         d="m 123.91539,68.471518 q -1.104,0 -1.104,-1.136 v -0.72 q 0,-1.104 1.104,-1.104 h 0.72 q 1.072,0 1.072,1.104 v 0.72 q 0,1.136 -1.072,1.136 z m 0.368,18.032 q -0.848,0 -0.848,-0.848 v -13.44 q 0,-0.832 0.848,-0.832 0.832,0 0.832,0.832 v 13.44 q 0,0.848 -0.832,0.848 z"
         style="text-align:center;text-anchor:middle;fill:#fefefe"
         id="path1924" />
      <path
         d="m 135.49939,86.503518 q -2.272,0 -3.344,-1.056 -1.056,-1.056 -1.056,-3.312 v -16.992 q 0,-0.832 0.848,-0.832 0.832,0 0.832,0.832 v 16.992 q 0,1.552 0.576,2.128 0.576,0.56 2.128,0.56 0.864,0 0.864,0.832 0.016,0.848 -0.848,0.848 z"
         style="text-align:center;text-anchor:middle;fill:#fefefe"
         id="path1926" />
      <path
         d="m 140.90739,68.471518 q -1.104,0 -1.104,-1.136 v -0.72 q 0,-1.104 1.104,-1.104 h 0.72 q 1.072,0 1.072,1.104 v 0.72 q 0,1.136 -1.072,1.136 z m 0.368,18.032 q -0.848,0 -0.848,-0.848 v -13.44 q 0,-0.832 0.848,-0.832 0.832,0 0.832,0.832 v 13.44 q 0,0.848 -0.832,0.848 z"
         style="text-align:center;text-anchor:middle;fill:#fefefe"
         id="path1928" />
      <path
         d="m 152.5874,86.503518 q -2.496,0 -3.664,-1.152 -1.152,-1.168 -1.152,-3.664 0,-2.496 1.168,-3.664 1.168,-1.168 3.648,-1.168 h 7.28 q -0.032,-2.112 -0.96,-2.944 -0.912,-0.848 -3.12,-0.848 h -1.856 q -2.032,0 -2.976,0.432 -0.944,0.432 -1.168,1.472 -0.112,0.4 -0.304,0.592 -0.176,0.176 -0.576,0.176 -0.416,0 -0.656,-0.224 -0.224,-0.24 -0.16,-0.64 0.208,-1.824 1.648,-2.656 1.456,-0.832 4.192,-0.832 h 1.856 q 2.992,0 4.368,1.392 1.392,1.376 1.392,4.368 v 8.512 q 0,0.848 -0.832,0.848 -0.848,0 -0.848,-0.848 v -1.584 q -1.536,2.432 -5.488,2.432 z m 0,-1.68 h 1.792 q 1.552,0 2.72,-0.336 1.184,-0.352 1.904,-1.12 0.72,-0.768 0.864,-2.048 v -2.784 h -7.28 q -1.776,0 -2.464,0.688 -0.672,0.672 -0.672,2.464 0,1.776 0.672,2.464 0.688,0.672 2.464,0.672 z"
         style="text-align:center;text-anchor:middle;fill:#fefefe"
         id="path1930" />
      <path
         d="m 168.09137,86.503518 q -0.848,0 -0.848,-0.848 v -13.44 q 0,-0.832 0.848,-0.832 0.832,0 0.832,0.832 v 1.536 q 1.52,-2.368 5.504,-2.368 h 0.896 q 2.992,0 4.368,1.392 1.392,1.376 1.392,4.368 v 8.512 q 0,0.848 -0.832,0.848 -0.848,0 -0.848,-0.848 v -8.512 q 0,-2.288 -0.912,-3.184 -0.896,-0.896 -3.168,-0.896 h -0.896 q -2.48,0 -3.904,0.784 -1.424,0.784 -1.6,2.448 v 9.36 q 0,0.848 -0.832,0.848 z"
         style="text-align:center;text-anchor:middle;fill:#fefefe"
         id="path1932" />
      <path
         d="m 190.09138,86.471518 q -1.968,0 -3.008,-0.832 -1.04,-0.848 -1.248,-2.576 -0.048,-0.416 0.176,-0.64 0.224,-0.24 0.656,-0.24 0.4,0 0.592,0.208 0.208,0.208 0.272,0.624 0.144,0.992 0.72,1.392 0.592,0.384 1.84,0.384 h 5.248 q 1.488,0 2.048,-0.56 0.56,-0.56 0.56,-2.048 0,-1.504 -0.56,-2.064 -0.56,-0.56 -2.048,-0.56 h -5.184 q -2.08,0 -3.104,-0.992 -1.008,-1.008 -1.008,-3.088 0,-2.128 1.008,-3.12 1.008,-1.008 3.104,-1.008 h 5.024 q 3.616,0 4.016,3.2 0.064,0.416 -0.176,0.656 -0.224,0.224 -0.64,0.224 -0.4,0 -0.608,-0.208 -0.192,-0.208 -0.272,-0.608 -0.112,-0.896 -0.656,-1.232 -0.528,-0.352 -1.664,-0.352 h -5.024 q -1.392,0 -1.92,0.512 -0.512,0.512 -0.512,1.936 0,1.36 0.528,1.888 0.528,0.512 1.904,0.512 h 5.184 q 2.208,0 3.248,1.056 1.04,1.04 1.04,3.248 0,2.192 -1.04,3.248 -1.04,1.04 -3.248,1.04 z"
         style="text-align:center;text-anchor:middle;fill:#fefefe"
         id="path1934" />
      <path
         d="m 203.49939,89.719518 q -0.368,0 -0.608,-0.208 -0.24,-0.208 -0.176,-0.576 l 0.752,-4.096 q 0.064,-0.8 0.912,-0.8 h 0.608 q 0.896,0 0.896,0.912 v 0.464 q 0,0.304 -0.048,0.464 -0.032,0.16 -0.096,0.304 l -1.504,3.024 q -0.256,0.512 -0.736,0.512 z"
         style="text-align:center;text-anchor:middle;fill:#fefefe"
         id="path1936" />
      <path
         d="m 222.57136,86.503518 q -0.752,0 -0.976,-0.688 l -4.512,-13.296 q -0.272,-0.816 0.528,-1.072 0.784,-0.24 1.04,0.528 l 4.384,12.848 h -0.672 l 4.192,-12.608 q 0.224,-0.672 0.96,-0.672 0.704,0 0.912,0.688 l 3.92,12.56 h -0.704 l 4.608,-12.816 q 0.32,-0.816 1.088,-0.528 0.8,0.304 0.512,1.088 l -4.944,13.28 q -0.256,0.688 -0.992,0.688 -0.816,0 -1.024,-0.688 l -3.632,-11.632 h 0.32 l -4,11.632 q -0.128,0.4 -0.4,0.544 -0.272,0.144 -0.608,0.144 z"
         style="text-align:center;text-anchor:middle;fill:#fefefe"
         id="path1938" />
      <path
         d="m 242.15538,68.471518 q -1.104,0 -1.104,-1.136 v -0.72 q 0,-1.104 1.104,-1.104 h 0.72 q 1.072,0 1.072,1.104 v 0.72 q 0,1.136 -1.072,1.136 z m 0.368,18.032 q -0.848,0 -0.848,-0.848 v -13.44 q 0,-0.832 0.848,-0.832 0.832,0 0.832,0.832 v 13.44 q 0,0.848 -0.832,0.848 z"
         style="text-align:center;text-anchor:middle;fill:#fefefe"
         id="path1940" />
      <path
         d="m 255.51538,86.503518 q -2.944,0 -4.304,-1.36 -1.36,-1.36 -1.36,-4.288 v -7.792 h -1.904 q -0.848,0 -0.848,-0.848 0,-0.832 0.848,-0.832 h 1.904 v -3.44 q 0,-0.848 0.832,-0.848 0.848,0 0.848,0.848 v 3.44 h 4.016 q 0.832,0 0.832,0.832 0,0.848 -0.832,0.848 h -4.016 v 7.792 q 0,2.24 0.864,3.104 0.88,0.864 3.12,0.864 0.464,0 0.656,0.208 0.208,0.208 0.208,0.624 0,0.848 -0.864,0.848 z"
         style="text-align:center;text-anchor:middle;fill:#fefefe"
         id="path1942" />
      <path
         d="m 261.65937,86.503518 q -0.848,0 -0.848,-0.848 v -20.512 q 0,-0.832 0.848,-0.832 0.832,0 0.832,0.832 v 8.608 q 1.52,-2.368 5.504,-2.368 h 0.896 q 2.992,0 4.368,1.392 1.392,1.376 1.392,4.368 v 8.512 q 0,0.848 -0.832,0.848 -0.848,0 -0.848,-0.848 v -8.512 q 0,-2.288 -0.912,-3.184 -0.896,-0.896 -3.168,-0.896 h -0.896 q -2.48,0 -3.904,0.784 -1.424,0.784 -1.6,2.448 v 9.36 q 0,0.848 -0.832,0.848 z"
         style="text-align:center;text-anchor:middle;fill:#fefefe"
         id="path1944" />
      <path
         d="m 305.32336,71.351518 q 2.576,0 3.68,1.312 1.12,1.312 1.12,4.336 v 8.688 q 0,0.832 -0.832,0.832 -0.848,0 -0.848,-0.832 v -8.688 q 0,-2.112 -0.72,-3.04 -0.72,-0.928 -2.4,-0.928 h -1.328 q -2.096,0 -3.008,0.928 -0.896,0.928 -0.896,3.04 v 8.688 q 0,0.832 -0.832,0.832 -0.848,0 -0.848,-0.832 v -8.688 q 0,-2.112 -0.72,-3.04 -0.72,-0.928 -2.4,-0.928 h -1.328 q -2.096,0 -3.008,0.928 -0.896,0.928 -0.896,3.04 v 8.688 q 0,0.832 -0.832,0.832 -0.848,0 -0.848,-0.832 v -13.472 q 0,-0.832 0.848,-0.832 0.832,0 0.832,0.832 v 1.248 q 0.704,-1.136 1.664,-1.616 0.976,-0.496 2.464,-0.496 h 1.104 q 1.68,0 2.688,0.592 1.024,0.576 1.616,1.904 0.704,-1.328 1.728,-1.904 1.024,-0.592 2.672,-0.592 z"
         style="text-align:center;text-anchor:middle;fill:#fefefe"
         id="path1946" />
      <path
         d="m 319.67535,86.503518 q -2.496,0 -3.664,-1.152 -1.152,-1.168 -1.152,-3.664 0,-2.496 1.168,-3.664 1.168,-1.168 3.648,-1.168 h 7.28 q -0.032,-2.112 -0.96,-2.944 -0.912,-0.848 -3.12,-0.848 h -1.856 q -2.032,0 -2.976,0.432 -0.944,0.432 -1.168,1.472 -0.112,0.4 -0.304,0.592 -0.176,0.176 -0.576,0.176 -0.416,0 -0.656,-0.224 -0.224,-0.24 -0.16,-0.64 0.208,-1.824 1.648,-2.656 1.456,-0.832 4.192,-0.832 h 1.856 q 2.992,0 4.368,1.392 1.392,1.376 1.392,4.368 v 8.512 q 0,0.848 -0.832,0.848 -0.848,0 -0.848,-0.848 v -1.584 q -1.536,2.432 -5.488,2.432 z m 0,-1.68 h 1.792 q 1.552,0 2.72,-0.336 1.184,-0.352 1.904,-1.12 0.72,-0.768 0.864,-2.048 v -2.784 h -7.28 q -1.776,0 -2.464,0.688 -0.672,0.672 -0.672,2.464 0,1.776 0.672,2.464 0.688,0.672 2.464,0.672 z"
         style="text-align:center;text-anchor:middle;fill:#fefefe"
         id="path1948" />
      <path
         d="m 335.17932,86.503518 q -0.848,0 -0.848,-0.848 v -13.44 q 0,-0.832 0.848,-0.832 0.832,0 0.832,0.832 v 1.536 q 1.52,-2.368 5.504,-2.368 h 0.896 q 2.992,0 4.368,1.392 1.392,1.376 1.392,4.368 v 8.512 q 0,0.848 -0.832,0.848 -0.848,0 -0.848,-0.848 v -8.512 q 0,-2.288 -0.912,-3.184 -0.896,-0.896 -3.168,-0.896 h -0.896 q -2.48,0 -3.904,0.784 -1.424,0.784 -1.6,2.448 v 9.36 q 0,0.848 -0.832,0.848 z"
         style="text-align:center;text-anchor:middle;fill:#fefefe"
         id="path1950" />
      <path
         d="m 357.67534,92.903518 q -2.096,0 -3.104,-1.008 -0.992,-1.008 -0.992,-3.136 0,-0.832 0.832,-0.832 0.848,0 0.848,0.832 0,1.44 0.512,1.952 0.512,0.512 1.904,0.512 h 5.536 q 1.408,0 1.92,-0.512 0.512,-0.512 0.512,-1.952 v -4.4 q -0.912,1.2 -2.288,1.68 -1.376,0.48 -3.216,0.48 h -0.896 q -2.944,0 -4.304,-1.36 -1.36,-1.36 -1.36,-4.272 v -8.688 q 0,-0.848 0.832,-0.848 0.848,0 0.848,0.848 v 8.688 q 0,2.224 0.864,3.088 0.88,0.864 3.12,0.864 h 0.896 q 2.8,0 4.144,-0.976 1.36,-0.992 1.36,-2.976 v -8.688 q 0,-0.848 0.832,-0.848 0.848,0 0.848,0.848 v 16.56 q 0,2.128 -1.008,3.136 -0.992,1.008 -3.104,1.008 z"
         style="text-align:center;text-anchor:middle;fill:#fefefe"
         id="path1952" />
      <path
         d="m 398.28332,71.351518 q 2.576,0 3.68,1.312 1.12,1.312 1.12,4.336 v 8.688 q 0,0.832 -0.832,0.832 -0.848,0 -0.848,-0.832 v -8.688 q 0,-2.112 -0.72,-3.04 -0.72,-0.928 -2.4,-0.928 h -1.328 q -2.096,0 -3.008,0.928 -0.896,0.928 -0.896,3.04 v 8.688 q 0,0.832 -0.832,0.832 -0.848,0 -0.848,-0.832 v -8.688 q 0,-2.112 -0.72,-3.04 -0.72,-0.928 -2.4,-0.928 h -1.328 q -2.096,0 -3.008,0.928 -0.896,0.928 -0.896,3.04 v 8.688 q 0,0.832 -0.832,0.832 -0.848,0 -0.848,-0.832 v -13.472 q 0,-0.832 0.848,-0.832 0.832,0 0.832,0.832 v 1.248 q 0.704,-1.136 1.664,-1.616 0.976,-0.496 2.464,-0.496 h 1.104 q 1.68,0 2.688,0.592 1.024,0.576 1.616,1.904 0.704,-1.328 1.728,-1.904 1.024,-0.592 2.672,-0.592 z"
         style="text-align:center;text-anchor:middle;fill:#fefefe"
         id="path1954" />
      <path
         d="m 414.12332,86.503518 q -2.992,0 -4.384,-1.376 -1.392,-1.392 -1.392,-4.368 v -3.616 q 0,-3.024 1.392,-4.4 1.392,-1.392 4.384,-1.36 h 2.624 q 2.992,0 4.368,1.392 1.392,1.376 1.392,4.368 v 3.584 q 0,2.992 -1.392,4.384 -1.376,1.392 -4.368,1.392 z m -4.096,-5.744 q 0,2.256 0.896,3.168 0.912,0.896 3.2,0.896 h 2.624 q 2.288,0 3.184,-0.896 0.896,-0.912 0.896,-3.2 v -3.584 q 0,-2.288 -0.896,-3.184 -0.896,-0.896 -3.184,-0.896 h -2.624 q -1.536,-0.016 -2.432,0.368 -0.896,0.384 -1.28,1.28 -0.384,0.896 -0.384,2.432 z"
         style="text-align:center;text-anchor:middle;fill:#fefefe"
         id="path1956" />
      <path
         d="m 428.90735,86.503518 q -0.848,0 -0.848,-0.848 v -13.44 q 0,-0.832 0.848,-0.832 0.832,0 0.832,0.832 v 2.464 q 0.832,-1.6 2.4,-2.448 1.584,-0.848 3.744,-0.848 0.848,0 0.848,0.832 0,0.848 -0.848,0.848 -2.848,0 -4.416,1.296 -1.568,1.28 -1.728,3.664 v 7.632 q 0,0.848 -0.832,0.848 z"
         style="text-align:center;text-anchor:middle;fill:#fefefe"
         id="path1958" />
      <path
         d="m 440.73136,79.591518 v 1.168 q 0,2.256 0.896,3.168 0.912,0.896 3.2,0.896 h 2.624 q 2.016,0 2.928,-0.512 0.928,-0.528 1.104,-1.808 0.064,-0.4 0.256,-0.608 0.208,-0.208 0.624,-0.208 0.416,0 0.624,0.24 0.224,0.224 0.176,0.64 -0.208,2.016 -1.616,2.976 -1.408,0.96 -4.096,0.96 h -2.624 q -2.992,0 -4.384,-1.376 -1.392,-1.392 -1.392,-4.368 v -3.616 q 0,-3.024 1.392,-4.4 1.392,-1.392 4.384,-1.36 h 2.624 q 2.992,0 4.368,1.392 1.392,1.376 1.392,4.368 v 1.6 q 0,0.848 -0.832,0.848 z m 4.096,-6.528 q -2.288,-0.032 -3.2,0.88 -0.896,0.896 -0.896,3.2 v 0.768 h 10.8 v -0.768 q 0,-2.288 -0.896,-3.184 -0.896,-0.896 -3.184,-0.896 z"
         style="text-align:center;text-anchor:middle;fill:#fefefe"
         id="path1960" />
      <path
         d="m 467.64338,86.503518 q -0.848,0 -0.848,-0.848 v -13.44 q 0,-0.832 0.848,-0.832 0.832,0 0.832,0.832 v 2.464 q 0.832,-1.6 2.4,-2.448 1.584,-0.848 3.744,-0.848 0.848,0 0.848,0.832 0,0.848 -0.848,0.848 -2.848,0 -4.416,1.296 -1.568,1.28 -1.728,3.664 v 7.632 q 0,0.848 -0.832,0.848 z"
         style="text-align:center;text-anchor:middle;fill:#fefefe"
         id="path1962" />
      <path
         d="m 482.39538,86.503518 q -2.496,0 -3.664,-1.152 -1.152,-1.168 -1.152,-3.664 0,-2.496 1.168,-3.664 1.168,-1.168 3.648,-1.168 h 7.28 q -0.032,-2.112 -0.96,-2.944 -0.912,-0.848 -3.12,-0.848 h -1.856 q -2.032,0 -2.976,0.432 -0.944,0.432 -1.168,1.472 -0.112,0.4 -0.304,0.592 -0.176,0.176 -0.576,0.176 -0.416,0 -0.656,-0.224 -0.224,-0.24 -0.16,-0.64 0.208,-1.824 1.648,-2.656 1.456,-0.832 4.192,-0.832 h 1.856 q 2.992,0 4.368,1.392 1.392,1.376 1.392,4.368 v 8.512 q 0,0.848 -0.832,0.848 -0.848,0 -0.848,-0.848 v -1.584 q -1.536,2.432 -5.488,2.432 z m 0,-1.68 h 1.792 q 1.552,0 2.72,-0.336 1.184,-0.352 1.904,-1.12 0.72,-0.768 0.864,-2.048 v -2.784 h -7.28 q -1.776,0 -2.464,0.688 -0.672,0.672 -0.672,2.464 0,1.776 0.672,2.464 0.688,0.672 2.464,0.672 z"
         style="text-align:center;text-anchor:middle;fill:#fefefe"
         id="path1964" />
      <path
         d="m 497.89936,92.903518 q -0.848,0 -0.848,-0.848 v -19.84 q 0,-0.832 0.848,-0.832 0.832,0 0.832,0.832 v 1.424 q 0.72,-1.12 2.064,-1.68 1.344,-0.576 3.44,-0.576 h 1.216 q 2.992,0 4.368,1.392 1.392,1.376 1.392,4.368 v 3.584 q 0,2.992 -1.392,4.384 -1.376,1.392 -4.368,1.392 h -6.72 v 5.552 q 0,0.848 -0.832,0.848 z m 0.832,-8.08 h 6.72 q 2.288,0 3.184,-0.896 0.896,-0.912 0.896,-3.2 v -3.584 q 0,-2.288 -0.896,-3.184 -0.896,-0.896 -3.184,-0.896 h -1.216 q -2.56,0 -3.936,0.8 -1.36,0.8 -1.568,2.464 z"
         style="text-align:center;text-anchor:middle;fill:#fefefe"
         id="path1966" />
      <path
         d="m 518.01133,79.591518 v 1.168 q 0,2.256 0.896,3.168 0.912,0.896 3.2,0.896 h 2.624 q 2.016,0 2.928,-0.512 0.928,-0.528 1.104,-1.808 0.064,-0.4 0.256,-0.608 0.208,-0.208 0.624,-0.208 0.416,0 0.624,0.24 0.224,0.224 0.176,0.64 -0.208,2.016 -1.616,2.976 -1.408,0.96 -4.096,0.96 h -2.624 q -2.992,0 -4.384,-1.376 -1.392,-1.392 -1.392,-4.368 v -3.616 q 0,-3.024 1.392,-4.4 1.392,-1.392 4.384,-1.36 h 2.624 q 2.992,0 4.368,1.392 1.392,1.376 1.392,4.368 v 1.6 q 0,0.848 -0.832,0.848 z m 4.096,-6.528 q -2.288,-0.032 -3.2,0.88 -0.896,0.896 -0.896,3.2 v 0.768 h 10.8 v -0.768 q 0,-2.288 -0.896,-3.184 -0.896,-0.896 -3.184,-0.896 z"
         style="text-align:center;text-anchor:middle;fill:#fefefe"
         id="path1968" />
      <path
         d="m 541.38736,86.503518 q -2.992,0 -4.384,-1.392 -1.392,-1.392 -1.392,-4.384 v -3.584 q 0,-2.992 1.392,-4.368 1.392,-1.392 4.384,-1.392 h 6.704 v -6.24 q 0,-0.832 0.848,-0.832 0.832,0 0.832,0.832 v 20.512 q 0,0.848 -0.832,0.848 -0.848,0 -0.848,-0.848 v -1.376 q -0.688,1.104 -2.016,1.664 -1.328,0.56 -3.472,0.56 z m 0,-1.68 h 1.216 q 2.496,0 3.984,-0.784 1.504,-0.8 1.504,-2.384 v -8.592 h -6.704 q -2.288,0 -3.2,0.912 -0.896,0.896 -0.896,3.168 v 3.584 q 0,2.288 0.896,3.2 0.912,0.896 3.2,0.896 z"
         style="text-align:center;text-anchor:middle;fill:#fefefe"
         id="path1970" />
      <path
         d="m 568.84335,86.503518 q -2.992,0 -4.384,-1.376 -1.392,-1.392 -1.392,-4.368 v -3.616 q 0,-3.024 1.392,-4.4 1.392,-1.392 4.384,-1.36 h 2.624 q 2.992,0 4.368,1.392 1.392,1.376 1.392,4.368 v 3.584 q 0,2.992 -1.392,4.384 -1.376,1.392 -4.368,1.392 z m -4.096,-5.744 q 0,2.256 0.896,3.168 0.912,0.896 3.2,0.896 h 2.624 q 2.288,0 3.184,-0.896 0.896,-0.912 0.896,-3.2 v -3.584 q 0,-2.288 -0.896,-3.184 -0.896,-0.896 -3.184,-0.896 h -2.624 q -1.536,-0.016 -2.432,0.368 -0.896,0.384 -1.28,1.28 -0.384,0.896 -0.384,2.432 z"
         style="text-align:center;text-anchor:middle;fill:#fefefe"
         id="path1972" />
      <path
         d="m 583.62738,86.503518 q -0.848,0 -0.848,-0.848 v -13.44 q 0,-0.832 0.848,-0.832 0.832,0 0.832,0.832 v 2.464 q 0.832,-1.6 2.4,-2.448 1.584,-0.848 3.744,-0.848 0.848,0 0.848,0.832 0,0.848 -0.848,0.848 -2.848,0 -4.416,1.296 -1.568,1.28 -1.728,3.664 v 7.632 q 0,0.848 -0.832,0.848 z"
         style="text-align:center;text-anchor:middle;fill:#fefefe"
         id="path1974" />
      <path
         d="m 609.05139,86.503518 q -2.944,0 -4.304,-1.36 -1.36,-1.36 -1.36,-4.288 v -7.792 h -1.904 q -0.848,0 -0.848,-0.848 0,-0.832 0.848,-0.832 h 1.904 v -3.44 q 0,-0.848 0.832,-0.848 0.848,0 0.848,0.848 v 3.44 h 4.016 q 0.832,0 0.832,0.832 0,0.848 -0.832,0.848 h -4.016 v 7.792 q 0,2.24 0.864,3.104 0.88,0.864 3.12,0.864 0.464,0 0.656,0.208 0.208,0.208 0.208,0.624 0,0.848 -0.864,0.848 z"
         style="text-align:center;text-anchor:middle;fill:#fefefe"
         id="path1976" />
      <path
         d="m 618.41135,86.503518 q -2.992,0 -4.384,-1.376 -1.392,-1.392 -1.392,-4.368 v -3.616 q 0,-3.024 1.392,-4.4 1.392,-1.392 4.384,-1.36 h 2.624 q 2.992,0 4.368,1.392 1.392,1.376 1.392,4.368 v 3.584 q 0,2.992 -1.392,4.384 -1.376,1.392 -4.368,1.392 z m -4.096,-5.744 q 0,2.256 0.896,3.168 0.912,0.896 3.2,0.896 h 2.624 q 2.288,0 3.184,-0.896 0.896,-0.912 0.896,-3.2 v -3.584 q 0,-2.288 -0.896,-3.184 -0.896,-0.896 -3.184,-0.896 h -2.624 q -1.536,-0.016 -2.432,0.368 -0.896,0.384 -1.28,1.28 -0.384,0.896 -0.384,2.432 z"
         style="text-align:center;text-anchor:middle;fill:#fefefe"
         id="path1978" />
      <path
         d="m 633.19538,86.503518 q -0.848,0 -0.848,-0.848 v -13.44 q 0,-0.832 0.848,-0.832 0.832,0 0.832,0.832 v 2.464 q 0.832,-1.6 2.4,-2.448 1.584,-0.848 3.744,-0.848 0.848,0 0.848,0.832 0,0.848 -0.848,0.848 -2.848,0 -4.416,1.296 -1.568,1.28 -1.728,3.664 v 7.632 q 0,0.848 -0.832,0.848 z"
         style="text-align:center;text-anchor:middle;fill:#fefefe"
         id="path1980" />
      <path
         d="m 650.5874,86.503518 q -2.944,0 -4.304,-1.36 -1.36,-1.36 -1.36,-4.288 v -7.792 h -1.904 q -0.848,0 -0.848,-0.848 0,-0.832 0.848,-0.832 h 1.904 v -3.44 q 0,-0.848 0.832,-0.848 0.848,0 0.848,0.848 v 3.44 h 4.016 q 0.832,0 0.832,0.832 0,0.848 -0.832,0.848 h -4.016 v 7.792 q 0,2.24 0.864,3.104 0.88,0.864 3.12,0.864 0.464,0 0.656,0.208 0.208,0.208 0.208,0.624 0,0.848 -0.864,0.848 z"
         style="text-align:center;text-anchor:middle;fill:#fefefe"
         id="path1982" />
      <path
         d="m 668.58739,71.383518 q 0.848,0 0.848,0.832 v 13.44 q 0,0.848 -0.848,0.848 -0.832,0 -0.832,-0.848 v -1.52 q -1.52,2.368 -5.504,2.368 h -0.896 q -2.992,0 -4.384,-1.392 -1.376,-1.392 -1.376,-4.384 v -8.512 q 0,-0.832 0.832,-0.832 0.848,0 0.848,0.832 v 8.512 q 0,2.288 0.896,3.2 0.912,0.896 3.184,0.896 h 0.896 q 2.48,0 3.904,-0.8 1.424,-0.8 1.6,-2.448 v -9.36 q 0,-0.832 0.832,-0.832 z"
         style="text-align:center;text-anchor:middle;fill:#fefefe"
         id="path1984" />
      <path
         d="m 676.2674,86.503518 q -0.848,0 -0.848,-0.848 v -13.44 q 0,-0.832 0.848,-0.832 0.832,0 0.832,0.832 v 2.464 q 0.832,-1.6 2.4,-2.448 1.584,-0.848 3.744,-0.848 0.848,0 0.848,0.832 0,0.848 -0.848,0.848 -2.848,0 -4.416,1.296 -1.568,1.28 -1.728,3.664 v 7.632 q 0,0.848 -0.832,0.848 z"
         style="text-align:center;text-anchor:middle;fill:#fefefe"
         id="path1986" />
      <path
         d="m 688.09141,79.591518 v 1.168 q 0,2.256 0.896,3.168 0.912,0.896 3.2,0.896 h 2.624 q 2.016,0 2.928,-0.512 0.928,-0.528 1.104,-1.808 0.064,-0.4 0.256,-0.608 0.208,-0.208 0.624,-0.208 0.416,0 0.624,0.24 0.224,0.224 0.176,0.64 -0.208,2.016 -1.616,2.976 -1.408,0.96 -4.096,0.96 h -2.624 q -2.992,0 -4.384,-1.376 -1.392,-1.392 -1.392,-4.368 v -3.616 q 0,-3.024 1.392,-4.4 1.392,-1.392 4.384,-1.36 h 2.624 q 2.992,0 4.368,1.392 1.392,1.376 1.392,4.368 v 1.6 q 0,0.848 -0.832,0.848 z m 4.096,-6.528 q -2.288,-0.032 -3.2,0.88 -0.896,0.896 -0.896,3.2 v 0.768 h 10.8 v -0.768 q 0,-2.288 -0.896,-3.184 -0.896,-0.896 -3.184,-0.896 z"
         style="text-align:center;text-anchor:middle;fill:#fefefe"
         id="path1988" />
      <path
         d="m 711.46744,86.503518 q -2.992,0 -4.384,-1.392 -1.392,-1.392 -1.392,-4.384 v -3.584 q 0,-2.992 1.392,-4.368 1.392,-1.392 4.384,-1.392 h 6.704 v -6.24 q 0,-0.832 0.848,-0.832 0.832,0 0.832,0.832 v 20.512 q 0,0.848 -0.832,0.848 -0.848,0 -0.848,-0.848 v -1.376 q -0.688,1.104 -2.016,1.664 -1.328,0.56 -3.472,0.56 z m 0,-1.68 h 1.216 q 2.496,0 3.984,-0.784 1.504,-0.8 1.504,-2.384 v -8.592 h -6.704 q -2.288,0 -3.2,0.912 -0.896,0.896 -0.896,3.168 v 3.584 q 0,2.288 0.896,3.2 0.912,0.896 3.2,0.896 z"
         style="text-align:center;text-anchor:middle;fill:#fefefe"
         id="path1990" />
      <path
         d="m 725.83545,86.503518 q -0.928,0 -0.928,-0.944 v -0.608 q 0,-0.912 0.928,-0.912 h 0.592 q 0.912,0 0.912,0.912 v 0.608 q 0,0.944 -0.912,0.944 z"
         style="text-align:center;text-anchor:middle;fill:#fefefe"
         id="path1992" />
      <path
         d="m 741.56342,86.503518 q -0.4,0 -0.624,-0.224 -0.224,-0.224 -0.224,-0.624 v -18.944 q 0,-0.4 0.224,-0.624 0.224,-0.224 0.624,-0.224 0.384,0 0.608,0.224 0.224,0.224 0.224,0.624 v 18.944 q 0,0.4 -0.224,0.624 -0.224,0.224 -0.608,0.224 z"
         style="text-align:center;text-anchor:middle;fill:#fefefe"
         id="path1994" />
      <path
         d="m 754.55542,86.503518 q -2.944,0 -4.304,-1.36 -1.36,-1.36 -1.36,-4.288 v -7.792 h -1.904 q -0.848,0 -0.848,-0.848 0,-0.832 0.848,-0.832 h 1.904 v -3.44 q 0,-0.848 0.832,-0.848 0.848,0 0.848,0.848 v 3.44 h 4.016 q 0.832,0 0.832,0.832 0,0.848 -0.832,0.848 h -4.016 v 7.792 q 0,2.24 0.864,3.104 0.88,0.864 3.12,0.864 0.464,0 0.656,0.208 0.208,0.208 0.208,0.624 0,0.848 -0.864,0.848 z"
         style="text-align:center;text-anchor:middle;fill:#fefefe"
         id="path1996" />
      <path
         d="m 759.6754,71.799518 q -0.32,0 -0.56,-0.224 -0.224,-0.24 -0.224,-0.56 v -6.528 q 0,-0.336 0.224,-0.56 0.24,-0.224 0.56,-0.224 0.336,0 0.56,0.224 0.224,0.224 0.224,0.56 v 6.528 q 0,0.32 -0.224,0.56 -0.224,0.224 -0.56,0.224 z"
         style="text-align:center;text-anchor:middle;fill:#fefefe"
         id="path1998" />
      <path
         d="m 769.11537,86.471518 q -1.968,0 -3.008,-0.832 -1.04,-0.848 -1.248,-2.576 -0.048,-0.416 0.176,-0.64 0.224,-0.24 0.656,-0.24 0.4,0 0.592,0.208 0.208,0.208 0.272,0.624 0.144,0.992 0.72,1.392 0.592,0.384 1.84,0.384 h 5.248 q 1.488,0 2.048,-0.56 0.56,-0.56 0.56,-2.048 0,-1.504 -0.56,-2.064 -0.56,-0.56 -2.048,-0.56 h -5.184 q -2.08,0 -3.104,-0.992 -1.008,-1.008 -1.008,-3.088 0,-2.128 1.008,-3.12 1.008,-1.008 3.104,-1.008 h 5.024 q 3.616,0 4.016,3.2 0.064,0.416 -0.176,0.656 -0.224,0.224 -0.64,0.224 -0.4,0 -0.608,-0.208 -0.192,-0.208 -0.272,-0.608 -0.112,-0.896 -0.656,-1.232 -0.528,-0.352 -1.664,-0.352 h -5.024 q -1.392,0 -1.92,0.512 -0.512,0.512 -0.512,1.936 0,1.36 0.528,1.888 0.528,0.512 1.904,0.512 h 5.184 q 2.208,0 3.248,1.056 1.04,1.04 1.04,3.248 0,2.192 -1.04,3.248 -1.04,1.04 -3.248,1.04 z"
         style="text-align:center;text-anchor:middle;fill:#fefefe"
         id="path2000" />
      <path
         d="m 796.20336,86.503518 q -2.496,0 -3.664,-1.152 -1.152,-1.168 -1.152,-3.664 0,-2.496 1.168,-3.664 1.168,-1.168 3.648,-1.168 h 7.28 q -0.032,-2.112 -0.96,-2.944 -0.912,-0.848 -3.12,-0.848 h -1.856 q -2.032,0 -2.976,0.432 -0.944,0.432 -1.168,1.472 -0.112,0.4 -0.304,0.592 -0.176,0.176 -0.576,0.176 -0.416,0 -0.656,-0.224 -0.224,-0.24 -0.16,-0.64 0.208,-1.824 1.648,-2.656 1.456,-0.832 4.192,-0.832 h 1.856 q 2.992,0 4.368,1.392 1.392,1.376 1.392,4.368 v 8.512 q 0,0.848 -0.832,0.848 -0.848,0 -0.848,-0.848 v -1.584 q -1.536,2.432 -5.488,2.432 z m 0,-1.68 h 1.792 q 1.552,0 2.72,-0.336 1.184,-0.352 1.904,-1.12 0.72,-0.768 0.864,-2.048 v -2.784 h -7.28 q -1.776,0 -2.464,0.688 -0.672,0.672 -0.672,2.464 0,1.776 0.672,2.464 0.688,0.672 2.464,0.672 z"
         style="text-align:center;text-anchor:middle;fill:#fefefe"
         id="path2002" />
      <path
         d="m 823.06732,92.903518 q -1.936,0 -3.056,-0.784 -1.104,-0.784 -1.424,-2.384 -0.112,-0.672 0.24,-1.056 0.352,-0.384 1.072,-0.384 0.608,0 0.88,0.32 0.288,0.336 0.496,0.992 0.192,0.352 0.592,0.48 0.416,0.128 1.2,0.128 h 5.952 q 1.2,0 1.552,-0.384 0.368,-0.368 0.368,-1.536 v -3.728 q -0.864,0.944 -2.144,1.44 -1.264,0.496 -2.848,0.496 h -1.216 q -3.184,0 -4.736,-1.536 -1.536,-1.536 -1.536,-4.704 v -3.712 q 0,-3.216 1.52,-4.736 1.536,-1.536 4.752,-1.536 h 2.624 q 1.136,0 2.032,0.336 0.912,0.336 1.552,1.024 v -0.016 q 0,-1.344 1.344,-1.344 1.344,0 1.344,1.344 v 16.672 q 0,2.352 -1.136,3.472 -1.12,1.136 -3.472,1.136 z m 1.664,-9.088 h 1.216 q 2.112,0 3.552,-0.528 1.44,-0.528 1.44,-1.68 v -6.4 q 0,-1.296 -0.944,-1.76 -0.928,-0.48 -2.64,-0.48 h -2.624 q -2.064,0 -2.832,0.736 -0.752,0.736 -0.752,2.848 v 3.712 q 0,2.032 0.752,2.8 0.752,0.752 2.832,0.752 z"
         style="font-weight:bold;-inkscape-font-specification:'Jura Bold';fill:#fefefe"
         id="path2004" />
      <path
         d="m 841.88335,79.495518 v 0.768 q 0,2.064 0.752,2.816 0.752,0.736 2.832,0.736 h 2.624 q 1.632,0 2.416,-0.304 0.784,-0.304 1.04,-1.072 0.176,-0.608 0.48,-0.928 0.32,-0.32 0.96,-0.32 0.672,0 1.024,0.352 0.352,0.352 0.224,1.024 -0.352,1.984 -1.888,2.96 -1.536,0.976 -4.256,0.976 h -2.624 q -3.184,0 -4.736,-1.536 -1.536,-1.536 -1.536,-4.704 v -3.712 q 0,-3.248 1.536,-4.768 1.552,-1.536 4.736,-1.504 h 2.624 q 3.2,0 4.736,1.536 1.536,1.52 1.536,4.736 v 1.6 q 0,1.344 -1.344,1.344 z m 3.584,-6.528 q -2.08,-0.032 -2.832,0.72 -0.752,0.752 -0.752,2.864 v 0.256 h 9.792 v -0.256 q 0,-2.096 -0.752,-2.832 -0.736,-0.752 -2.832,-0.752 z"
         style="font-weight:bold;-inkscape-font-specification:'Jura Bold';fill:#fefefe"
         id="path2006" />
      <path
         d="m 861.59537,86.503518 q -1.344,0 -1.344,-1.344 v -13.536 q 0,-1.344 1.344,-1.344 1.344,0 1.344,1.344 v 0.528 q 1.696,-1.872 4.992,-1.872 h 0.896 q 3.2,0 4.736,1.536 1.536,1.536 1.536,4.736 v 8.608 q 0,1.344 -1.344,1.344 -1.344,0 -1.344,-1.344 v -8.608 q 0,-2.096 -0.768,-2.832 -0.752,-0.752 -2.816,-0.752 h -0.896 q -1.92,0 -3.344,0.448 -1.424,0.432 -1.648,1.376 v 10.368 q 0,1.344 -1.344,1.344 z"
         style="font-weight:bold;-inkscape-font-specification:'Jura Bold';fill:#fefefe"
         id="path2008" />
      <path
         d="m 886.93939,86.503518 q -3.184,0 -4.736,-1.536 -1.536,-1.536 -1.536,-4.704 v -3.712 q 0,-3.216 1.536,-4.736 1.552,-1.536 4.736,-1.536 h 2.624 q 3.2,0 4.736,1.536 1.536,1.536 1.536,4.736 v 3.68 q 0,3.184 -1.536,4.736 -1.536,1.536 -4.736,1.536 z m -3.584,-6.24 q 0,2.064 0.752,2.816 0.752,0.736 2.832,0.736 h 2.624 q 2.096,0 2.832,-0.752 0.752,-0.752 0.752,-2.832 v -3.68 q 0,-2.096 -0.752,-2.832 -0.736,-0.752 -2.832,-0.752 h -2.624 q -1.392,0 -2.176,0.32 -0.768,0.304 -1.088,1.088 -0.32,0.768 -0.32,2.176 z"
         style="font-weight:bold;-inkscape-font-specification:'Jura Bold';fill:#fefefe"
         id="path2010" />
      <path
         d="m 907.22742,86.503518 q -3.184,0 -4.736,-1.536 -1.536,-1.552 -1.536,-4.736 v -3.712 q 0,-3.2 1.52,-4.736 1.536,-1.536 4.752,-1.504 h 2.624 q 2.384,0 3.744,0.8 1.376,0.8 1.76,2.464 0.144,0.672 -0.24,1.04 -0.368,0.368 -1.072,0.368 -0.624,0 -0.912,-0.32 -0.288,-0.32 -0.528,-0.896 -0.24,-0.432 -0.88,-0.592 -0.64,-0.176 -1.872,-0.176 h -2.624 q -2.064,-0.032 -2.832,0.72 -0.752,0.736 -0.752,2.832 v 3.712 q 0,2.08 0.752,2.832 0.768,0.752 2.832,0.752 h 2.624 q 1.232,0 1.872,-0.16 0.64,-0.176 0.88,-0.608 0.24,-0.608 0.528,-0.912 0.304,-0.304 0.944,-0.304 0.672,0 1.04,0.368 0.384,0.368 0.24,1.04 -0.384,1.648 -1.76,2.464 -1.36,0.8 -3.744,0.8 z"
         style="font-weight:bold;-inkscape-font-specification:'Jura Bold';fill:#fefefe"
         id="path2012" />
      <path
         d="m 921.85141,67.655518 q -1.52,0 -1.52,-1.536 v -0.944 q 0,-1.504 1.52,-1.504 h 0.928 q 1.456,0 1.456,1.504 v 0.944 q 0,1.536 -1.456,1.536 z m 0.448,18.848 q -1.344,0 -1.344,-1.344 v -13.536 q 0,-1.344 1.344,-1.344 1.344,0 1.344,1.344 v 13.536 q 0,1.344 -1.344,1.344 z"
         style="font-weight:bold;-inkscape-font-specification:'Jura Bold';fill:#fefefe"
         id="path2014" />
      <path
         d="m 935.80341,86.503518 q -3.184,0 -4.736,-1.536 -1.536,-1.552 -1.536,-4.736 v -3.68 q 0,-3.2 1.536,-4.736 1.552,-1.536 4.736,-1.536 h 6.208 v -4.96 q 0,-1.344 1.344,-1.344 1.344,0 1.344,1.344 v 19.84 q 0,1.344 -1.344,1.344 -1.344,0 -1.344,-1.344 v -0.224 q -0.752,0.768 -1.968,1.168 -1.216,0.4 -3.024,0.4 z m 0,-2.688 h 1.216 q 2.112,0 3.552,-0.544 1.44,-0.544 1.44,-1.664 v -8.64 h -6.208 q -2.08,0 -2.832,0.768 -0.752,0.752 -0.752,2.816 v 3.68 q 0,2.08 0.752,2.832 0.768,0.752 2.832,0.752 z"
         style="font-weight:bold;-inkscape-font-specification:'Jura Bold';fill:#fefefe"
         id="path2016" />
      <path
         d="m 952.95543,79.495518 v 0.768 q 0,2.064 0.752,2.816 0.752,0.736 2.832,0.736 h 2.624 q 1.632,0 2.416,-0.304 0.784,-0.304 1.04,-1.072 0.176,-0.608 0.48,-0.928 0.32,-0.32 0.96,-0.32 0.672,0 1.024,0.352 0.352,0.352 0.224,1.024 -0.352,1.984 -1.888,2.96 -1.536,0.976 -4.256,0.976 h -2.624 q -3.184,0 -4.736,-1.536 -1.536,-1.536 -1.536,-4.704 v -3.712 q 0,-3.248 1.536,-4.768 1.552,-1.536 4.736,-1.504 h 2.624 q 3.2,0 4.736,1.536 1.536,1.52 1.536,4.736 v 1.6 q 0,1.344 -1.344,1.344 z m 3.584,-6.528 q -2.08,-0.032 -2.832,0.72 -0.752,0.752 -0.752,2.864 v 0.256 h 9.792 v -0.256 q 0,-2.096 -0.752,-2.832 -0.736,-0.752 -2.832,-0.752 z"
         style="font-weight:bold;-inkscape-font-specification:'Jura Bold';fill:#fefefe"
         id="path2018" />
      <path
         d="m 971.27545,86.503518 q -0.928,0 -0.928,-0.944 v -0.608 q 0,-0.912 0.928,-0.912 h 0.592 q 0.912,0 0.912,0.912 v 0.608 q 0,0.944 -0.912,0.944 z"
         style="text-align:center;text-anchor:middle;fill:#fefefe"
         id="path2020" />
      <path
         d="m 370.13136,126.50352 q -0.608,0 -0.816,-0.656 l -6.128,-18.848 q -0.128,-0.368 0.096,-0.736 0.224,-0.384 0.704,-0.384 0.272,0 0.48,0.16 0.224,0.144 0.304,0.448 l 5.696,17.504 h -0.464 l 5.392,-17.456 q 0.112,-0.352 0.384,-0.512 0.288,-0.16 0.592,-0.16 0.32,0 0.608,0.16 0.288,0.16 0.368,0.512 l 5.392,17.456 h -0.464 l 5.696,-17.504 q 0.112,-0.304 0.304,-0.448 0.208,-0.16 0.48,-0.16 0.544,0 0.736,0.368 0.208,0.368 0.08,0.752 l -6.144,18.848 q -0.208,0.656 -0.88,0.656 h -0.064 q -0.688,0 -0.88,-0.656 l -5.488,-17.632 h 0.464 l -5.488,17.632 q -0.112,0.4 -0.352,0.528 -0.24,0.128 -0.608,0.128 z"
         style="text-align:center;text-anchor:middle;fill:#fefefe"
         id="path2022" />
      <path
         d="m 392.06736,119.59152 v 1.168 q 0,2.256 0.896,3.168 0.912,0.896 3.2,0.896 h 2.624 q 2.016,0 2.928,-0.512 0.928,-0.528 1.104,-1.808 0.064,-0.4 0.256,-0.608 0.208,-0.208 0.624,-0.208 0.416,0 0.624,0.24 0.224,0.224 0.176,0.64 -0.208,2.016 -1.616,2.976 -1.408,0.96 -4.096,0.96 h -2.624 q -2.992,0 -4.384,-1.376 -1.392,-1.392 -1.392,-4.368 v -3.616 q 0,-3.024 1.392,-4.4 1.392,-1.392 4.384,-1.36 h 2.624 q 2.992,0 4.368,1.392 1.392,1.376 1.392,4.368 v 1.6 q 0,0.848 -0.832,0.848 z m 4.096,-6.528 q -2.288,-0.032 -3.2,0.88 -0.896,0.896 -0.896,3.2 v 0.768 h 10.8 v -0.768 q 0,-2.288 -0.896,-3.184 -0.896,-0.896 -3.184,-0.896 z"
         style="text-align:center;text-anchor:middle;fill:#fefefe"
         id="path2024" />
      <path
         d="m 418.97937,126.50352 q -0.848,0 -0.848,-0.848 v -13.44 q 0,-0.832 0.848,-0.832 0.832,0 0.832,0.832 v 1.536 q 1.52,-2.368 5.504,-2.368 h 0.896 q 2.992,0 4.368,1.392 1.392,1.376 1.392,4.368 v 8.512 q 0,0.848 -0.832,0.848 -0.848,0 -0.848,-0.848 v -8.512 q 0,-2.288 -0.912,-3.184 -0.896,-0.896 -3.168,-0.896 h -0.896 q -2.48,0 -3.904,0.784 -1.424,0.784 -1.6,2.448 v 9.36 q 0,0.848 -0.832,0.848 z"
         style="text-align:center;text-anchor:middle;fill:#fefefe"
         id="path2026" />
      <path
         d="m 438.91538,119.59152 v 1.168 q 0,2.256 0.896,3.168 0.912,0.896 3.2,0.896 h 2.624 q 2.016,0 2.928,-0.512 0.928,-0.528 1.104,-1.808 0.064,-0.4 0.256,-0.608 0.208,-0.208 0.624,-0.208 0.416,0 0.624,0.24 0.224,0.224 0.176,0.64 -0.208,2.016 -1.616,2.976 -1.408,0.96 -4.096,0.96 h -2.624 q -2.992,0 -4.384,-1.376 -1.392,-1.392 -1.392,-4.368 v -3.616 q 0,-3.024 1.392,-4.4 1.392,-1.392 4.384,-1.36 h 2.624 q 2.992,0 4.368,1.392 1.392,1.376 1.392,4.368 v 1.6 q 0,0.848 -0.832,0.848 z m 4.096,-6.528 q -2.288,-0.032 -3.2,0.88 -0.896,0.896 -0.896,3.2 v 0.768 h 10.8 v -0.768 q 0,-2.288 -0.896,-3.184 -0.896,-0.896 -3.184,-0.896 z"
         style="text-align:center;text-anchor:middle;fill:#fefefe"
         id="path2028" />
      <path
         d="m 458.19541,119.59152 v 1.168 q 0,2.256 0.896,3.168 0.912,0.896 3.2,0.896 h 2.624 q 2.016,0 2.928,-0.512 0.928,-0.528 1.104,-1.808 0.064,-0.4 0.256,-0.608 0.208,-0.208 0.624,-0.208 0.416,0 0.624,0.24 0.224,0.224 0.176,0.64 -0.208,2.016 -1.616,2.976 -1.408,0.96 -4.096,0.96 h -2.624 q -2.992,0 -4.384,-1.376 -1.392,-1.392 -1.392,-4.368 v -3.616 q 0,-3.024 1.392,-4.4 1.392,-1.392 4.384,-1.36 h 2.624 q 2.992,0 4.368,1.392 1.392,1.376 1.392,4.368 v 1.6 q 0,0.848 -0.832,0.848 z m 4.096,-6.528 q -2.288,-0.032 -3.2,0.88 -0.896,0.896 -0.896,3.2 v 0.768 h 10.8 v -0.768 q 0,-2.288 -0.896,-3.184 -0.896,-0.896 -3.184,-0.896 z"
         style="text-align:center;text-anchor:middle;fill:#fefefe"
         id="path2030" />
      <path
         d="m 481.57144,126.50352 q -2.992,0 -4.384,-1.392 -1.392,-1.392 -1.392,-4.384 v -3.584 q 0,-2.992 1.392,-4.368 1.392,-1.392 4.384,-1.392 h 6.704 v -6.24 q 0,-0.832 0.848,-0.832 0.832,0 0.832,0.832 v 20.512 q 0,0.848 -0.832,0.848 -0.848,0 -0.848,-0.848 v -1.376 q -0.688,1.104 -2.016,1.664 -1.328,0.56 -3.472,0.56 z m 0,-1.68 h 1.216 q 2.496,0 3.984,-0.784 1.504,-0.8 1.504,-2.384 v -8.592 h -6.704 q -2.288,0 -3.2,0.912 -0.896,0.896 -0.896,3.168 v 3.584 q 0,2.288 0.896,3.2 0.912,0.896 3.2,0.896 z"
         style="text-align:center;text-anchor:middle;fill:#fefefe"
         id="path2032" />
      <path
         d="m 507.49144,132.90352 q -2.096,0 -3.104,-1.008 -0.992,-1.008 -0.992,-3.136 0,-0.832 0.832,-0.832 0.848,0 0.848,0.832 0,1.44 0.512,1.952 0.512,0.512 1.904,0.512 h 5.536 q 1.408,0 1.92,-0.512 0.512,-0.512 0.512,-1.952 v -4.4 q -0.912,1.2 -2.288,1.68 -1.376,0.48 -3.216,0.48 h -0.896 q -2.944,0 -4.304,-1.36 -1.36,-1.36 -1.36,-4.272 v -8.688 q 0,-0.848 0.832,-0.848 0.848,0 0.848,0.848 v 8.688 q 0,2.224 0.864,3.088 0.88,0.864 3.12,0.864 h 0.896 q 2.8,0 4.144,-0.976 1.36,-0.992 1.36,-2.976 v -8.688 q 0,-0.848 0.832,-0.848 0.848,0 0.848,0.848 v 16.56 q 0,2.128 -1.008,3.136 -0.992,1.008 -3.104,1.008 z"
         style="text-align:center;text-anchor:middle;fill:#fefefe"
         id="path2034" />
      <path
         d="m 528.46744,126.50352 q -2.992,0 -4.384,-1.376 -1.392,-1.392 -1.392,-4.368 v -3.616 q 0,-3.024 1.392,-4.4 1.392,-1.392 4.384,-1.36 h 2.624 q 2.992,0 4.368,1.392 1.392,1.376 1.392,4.368 v 3.584 q 0,2.992 -1.392,4.384 -1.376,1.392 -4.368,1.392 z m -4.096,-5.744 q 0,2.256 0.896,3.168 0.912,0.896 3.2,0.896 h 2.624 q 2.288,0 3.184,-0.896 0.896,-0.912 0.896,-3.2 v -3.584 q 0,-2.288 -0.896,-3.184 -0.896,-0.896 -3.184,-0.896 h -2.624 q -1.536,-0.016 -2.432,0.368 -0.896,0.384 -1.28,1.28 -0.384,0.896 -0.384,2.432 z"
         style="text-align:center;text-anchor:middle;fill:#fefefe"
         id="path2036" />
      <path
         d="m 555.10747,111.38352 q 0.848,0 0.848,0.832 v 13.44 q 0,0.848 -0.848,0.848 -0.832,0 -0.832,-0.848 v -1.52 q -1.52,2.368 -5.504,2.368 h -0.896 q -2.992,0 -4.384,-1.392 -1.376,-1.392 -1.376,-4.384 v -8.512 q 0,-0.832 0.832,-0.832 0.848,0 0.848,0.832 v 8.512 q 0,2.288 0.896,3.2 0.912,0.896 3.184,0.896 h 0.896 q 2.48,0 3.904,-0.8 1.424,-0.8 1.6,-2.448 v -9.36 q 0,-0.832 0.832,-0.832 z"
         style="text-align:center;text-anchor:middle;fill:#fefefe"
         id="path2038" />
      <path
         d="m 562.78748,126.50352 q -0.848,0 -0.848,-0.848 v -13.44 q 0,-0.832 0.848,-0.832 0.832,0 0.832,0.832 v 2.464 q 0.832,-1.6 2.4,-2.448 1.584,-0.848 3.744,-0.848 0.848,0 0.848,0.832 0,0.848 -0.848,0.848 -2.848,0 -4.416,1.296 -1.568,1.28 -1.728,3.664 v 7.632 q 0,0.848 -0.832,0.848 z"
         style="text-align:center;text-anchor:middle;fill:#fefefe"
         id="path2040" />
      <path
         d="m 582.88349,126.50352 q -0.848,0 -0.848,-0.848 v -20.512 q 0,-0.832 0.848,-0.832 0.832,0 0.832,0.832 v 8.608 q 1.52,-2.368 5.504,-2.368 h 0.896 q 2.992,0 4.368,1.392 1.392,1.376 1.392,4.368 v 8.512 q 0,0.848 -0.832,0.848 -0.848,0 -0.848,-0.848 v -8.512 q 0,-2.288 -0.912,-3.184 -0.896,-0.896 -3.168,-0.896 h -0.896 q -2.48,0 -3.904,0.784 -1.424,0.784 -1.6,2.448 v 9.36 q 0,0.848 -0.832,0.848 z"
         style="text-align:center;text-anchor:middle;fill:#fefefe"
         id="path2042" />
      <path
         d="m 602.8195,119.59152 v 1.168 q 0,2.256 0.896,3.168 0.912,0.896 3.2,0.896 h 2.624 q 2.016,0 2.928,-0.512 0.928,-0.528 1.104,-1.808 0.064,-0.4 0.256,-0.608 0.208,-0.208 0.624,-0.208 0.416,0 0.624,0.24 0.224,0.224 0.176,0.64 -0.208,2.016 -1.616,2.976 -1.408,0.96 -4.096,0.96 h -2.624 q -2.992,0 -4.384,-1.376 -1.392,-1.392 -1.392,-4.368 v -3.616 q 0,-3.024 1.392,-4.4 1.392,-1.392 4.384,-1.36 h 2.624 q 2.992,0 4.368,1.392 1.392,1.376 1.392,4.368 v 1.6 q 0,0.848 -0.832,0.848 z m 4.096,-6.528 q -2.288,-0.032 -3.2,0.88 -0.896,0.896 -0.896,3.2 v 0.768 h 10.8 v -0.768 q 0,-2.288 -0.896,-3.184 -0.896,-0.896 -3.184,-0.896 z"
         style="text-align:center;text-anchor:middle;fill:#fefefe"
         id="path2044" />
      <path
         d="m 625.25153,126.50352 q -2.272,0 -3.344,-1.056 -1.056,-1.056 -1.056,-3.312 v -16.992 q 0,-0.832 0.848,-0.832 0.832,0 0.832,0.832 v 16.992 q 0,1.552 0.576,2.128 0.576,0.56 2.128,0.56 0.864,0 0.864,0.832 0.016,0.848 -0.848,0.848 z"
         style="text-align:center;text-anchor:middle;fill:#fefefe"
         id="path2046" />
      <path
         d="m 630.06751,132.90352 q -0.848,0 -0.848,-0.848 v -19.84 q 0,-0.832 0.848,-0.832 0.832,0 0.832,0.832 v 1.424 q 0.72,-1.12 2.064,-1.68 1.344,-0.576 3.44,-0.576 h 1.216 q 2.992,0 4.368,1.392 1.392,1.376 1.392,4.368 v 3.584 q 0,2.992 -1.392,4.384 -1.376,1.392 -4.368,1.392 h -6.72 v 5.552 q 0,0.848 -0.832,0.848 z m 0.832,-8.08 h 6.72 q 2.288,0 3.184,-0.896 0.896,-0.912 0.896,-3.2 v -3.584 q 0,-2.288 -0.896,-3.184 -0.896,-0.896 -3.184,-0.896 h -1.216 q -2.56,0 -3.936,0.8 -1.36,0.8 -1.568,2.464 z"
         style="text-align:center;text-anchor:middle;fill:#fefefe"
         id="path2048" />
      <path
         d="m 649.52348,121.62352 q -0.832,0 -0.832,-0.832 v -15.68 q 0,-0.832 0.832,-0.832 0.848,0 0.848,0.832 v 15.68 q 0,0.832 -0.848,0.832 z m -0.304,4.88 q -0.928,0 -0.928,-0.944 v -0.608 q 0,-0.912 0.928,-0.912 h 0.592 q 0.912,0 0.912,0.912 v 0.608 q 0,0.944 -0.912,0.944 z"
         style="text-align:center;text-anchor:middle;fill:#fefefe"
         id="path2050" />
    </g>
  </g>
  <g
     id="g1470"
     style="display:inline"
     transform="translate(0,6)">
    <rect
       style="display:inline;fill:#fcdf51;fill-opacity:1;stroke-width:3.67444;paint-order:fill markers stroke"
       id="rect567-3"
       width="1040"
       height="50"
       x="0"
       y="144" />
    <g
       aria-label="Save lives in Ukraine "
       transform="translate(260.80741,37.596169)"
       id="text1477"
       style="font-size:32px;font-family:Jura;-inkscape-font-specification:Jura;text-align:justify;white-space:pre;shape-inside:url(#rect1479);display:inline;fill:#2e3440;stroke-width:6.09638;paint-order:fill markers stroke">
      <path
         d="m 78.396531,141.64805 q -2.736,0 -4.272,-1.104 -1.52,-1.104 -1.904,-3.408 -0.064,-0.704 0.288,-1.056 0.352,-0.352 1.024,-0.352 0.672,0 0.976,0.32 0.32,0.32 0.432,0.992 0.24,1.104 1.024,1.52 0.8,0.4 2.432,0.4 h 4.608 q 2.064,0 2.8,-0.736 0.752,-0.752 0.752,-2.784 0,-2.064 -0.768,-2.816 -0.768,-0.768 -2.784,-0.768 h -3.968 q -3.024,0 -4.496,-1.472 -1.456,-1.488 -1.456,-4.512 0,-3.008 1.44,-4.464 1.456,-1.456 4.48,-1.456 h 3.808 q 2.544,0 3.984,1.04 1.456,1.04 1.84,3.184 0.096,0.688 -0.256,1.056 -0.352,0.352 -1.056,0.352 -0.64,0 -0.96,-0.336 -0.32,-0.336 -0.416,-0.976 -0.256,-0.944 -0.976,-1.28 -0.72,-0.352 -2.16,-0.352 h -3.808 q -1.92,0 -2.576,0.688 -0.656,0.672 -0.656,2.544 0,1.888 0.672,2.592 0.672,0.704 2.592,0.704 h 3.968 q 3.152,0 4.688,1.536 1.552,1.536 1.552,4.736 0,3.184 -1.536,4.704 -1.536,1.504 -4.704,1.504 z"
         style="font-weight:bold"
         id="path1767" />
      <path
         d="m 100.1245,141.64805 q -2.687996,0 -3.999996,-1.312 -1.312,-1.312 -1.312,-4 0,-2.688 1.296,-4 1.312,-1.312 4.015996,-1.312 h 6.768 q -0.096,-1.68 -0.88,-2.288 -0.784,-0.624 -2.688,-0.624 h -1.856 q -1.599996,0 -2.383996,0.224 -0.784,0.208 -1.104,0.768 -0.288,0.672 -0.592,0.928 -0.304,0.256 -0.912,0.256 -0.672,0 -1.056,-0.368 -0.384,-0.384 -0.224,-1.008 0.48,-1.808 2,-2.64 1.536,-0.848 4.271996,-0.848 h 1.856 q 3.2,0 4.736,1.536 1.536,1.536 1.536,4.736 v 8.608 q 0,1.344 -1.344,1.344 -1.344,0 -1.344,-1.344 v -0.72 q -1.712,2.064 -4.992,2.064 z m 0,-2.688 h 1.792 q 1.184,0 2.224,-0.208 1.04,-0.224 1.776,-0.8 0.752,-0.576 0.992,-1.648 v -2.592 h -6.784 q -1.583996,0 -2.111996,0.528 -0.512,0.528 -0.512,2.096 0,1.584 0.512,2.112 0.528,0.512 2.111996,0.512 z"
         style="font-weight:bold"
         id="path1769" />
      <path
         d="m 121.94848,140.65605 q -0.208,0.496 -0.592,0.752 -0.368,0.24 -0.944,0.24 -1.008,0 -1.44,-1.056 l -5.44,-13.248 q -0.56,-1.28 0.704,-1.76 1.2,-0.56 1.76,0.704 l 5.088,12.416 h -1.248 l 5.568,-12.48 q 0.272,-0.528 0.736,-0.72 0.48,-0.192 1.056,0.08 1.184,0.56 0.64,1.792 z"
         style="font-weight:bold"
         id="path1771" />
      <path
         d="m 133.7245,134.64005 v 0.768 q 0,2.064 0.752,2.816 0.752,0.736 2.832,0.736 h 2.624 q 1.632,0 2.416,-0.304 0.784,-0.304 1.04,-1.072 0.176,-0.608 0.48,-0.928 0.32,-0.32 0.96,-0.32 0.672,0 1.024,0.352 0.352,0.352 0.224,1.024 -0.352,1.984 -1.888,2.96 -1.536,0.976 -4.256,0.976 h -2.624 q -3.184,0 -4.736,-1.536 -1.536,-1.536 -1.536,-4.704 v -3.712 q 0,-3.248 1.536,-4.768 1.552,-1.536 4.736,-1.504 h 2.624 q 3.2,0 4.736,1.536 1.536,1.52 1.536,4.736 v 1.6 q 0,1.344 -1.344,1.344 z m 3.584,-6.528 q -2.08,-0.032 -2.832,0.72 -0.752,0.752 -0.752,2.864 v 0.256 h 9.792 v -0.256 q 0,-2.096 -0.752,-2.832 -0.736,-0.752 -2.832,-0.752 z"
         style="font-weight:bold"
         id="path1773" />
      <path
         d="m 166.9725,141.64805 q -2.448,0 -3.648,-1.2 -1.184,-1.216 -1.184,-3.664 v -16.32 q 0,-1.344 1.344,-1.344 1.344,0 1.344,1.344 v 16.32 q 0,1.296 0.416,1.744 0.432,0.432 1.728,0.432 1.376,0 1.376,1.344 0.048,1.344 -1.376,1.344 z"
         style="font-weight:bold"
         id="path1775" />
      <path
         d="m 174.01251,122.80005 q -1.52,0 -1.52,-1.536 v -0.944 q 0,-1.504 1.52,-1.504 h 0.928 q 1.456,0 1.456,1.504 v 0.944 q 0,1.536 -1.456,1.536 z m 0.448,18.848 q -1.344,0 -1.344,-1.344 v -13.536 q 0,-1.344 1.344,-1.344 1.344,0 1.344,1.344 v 13.536 q 0,1.344 -1.344,1.344 z"
         style="font-weight:bold"
         id="path1777" />
      <path
         d="m 188.79651,140.65605 q -0.208,0.496 -0.592,0.752 -0.368,0.24 -0.944,0.24 -1.008,0 -1.44,-1.056 l -5.44,-13.248 q -0.56,-1.28 0.704,-1.76 1.2,-0.56 1.76,0.704 l 5.088,12.416 h -1.248 l 5.568,-12.48 q 0.272,-0.528 0.736,-0.72 0.48,-0.192 1.056,0.08 1.184,0.56 0.64,1.792 z"
         style="font-weight:bold"
         id="path1779" />
      <path
         d="m 200.57252,134.64005 v 0.768 q 0,2.064 0.752,2.816 0.752,0.736 2.832,0.736 h 2.624 q 1.632,0 2.416,-0.304 0.784,-0.304 1.04,-1.072 0.176,-0.608 0.48,-0.928 0.32,-0.32 0.96,-0.32 0.672,0 1.024,0.352 0.352,0.352 0.224,1.024 -0.352,1.984 -1.888,2.96 -1.536,0.976 -4.256,0.976 h -2.624 q -3.184,0 -4.736,-1.536 -1.536,-1.536 -1.536,-4.704 v -3.712 q 0,-3.248 1.536,-4.768 1.552,-1.536 4.736,-1.504 h 2.624 q 3.2,0 4.736,1.536 1.536,1.52 1.536,4.736 v 1.6 q 0,1.344 -1.344,1.344 z m 3.584,-6.528 q -2.08,-0.032 -2.832,0.72 -0.752,0.752 -0.752,2.864 v 0.256 h 9.792 v -0.256 q 0,-2.096 -0.752,-2.832 -0.736,-0.752 -2.832,-0.752 z"
         style="font-weight:bold"
         id="path1781" />
      <path
         d="m 222.74855,141.64805 q -2.032,0 -3.216,-0.832 -1.184,-0.848 -1.52,-2.528 -0.112,-0.672 0.256,-1.056 0.384,-0.384 1.056,-0.384 0.656,0 0.944,0.336 0.304,0.32 0.496,0.976 0.192,0.48 0.64,0.64 0.464,0.16 1.344,0.16 h 5.248 q 1.248,0 1.68,-0.4 0.432,-0.416 0.432,-1.712 0,-1.28 -0.432,-1.696 -0.432,-0.416 -1.68,-0.416 h -5.152 q -2.304,0 -3.472,-1.168 -1.168,-1.168 -1.168,-3.472 0,-2.352 1.136,-3.504 1.152,-1.168 3.504,-1.168 h 4.992 q 3.76,0 4.448,3.168 0.128,0.672 -0.256,1.04 -0.384,0.368 -1.056,0.368 -0.624,0 -0.928,-0.32 -0.304,-0.336 -0.48,-0.928 -0.192,-0.384 -0.592,-0.512 -0.384,-0.128 -1.136,-0.128 h -4.992 q -1.216,0 -1.584,0.368 -0.368,0.368 -0.368,1.616 0,1.152 0.384,1.552 0.4,0.4 1.568,0.4 h 5.152 q 2.4,0 3.6,1.2 1.2,1.2 1.2,3.6 0,2.416 -1.2,3.616 -1.2,1.184 -3.6,1.184 z"
         style="font-weight:bold"
         id="path1783" />
      <path
         d="m 249.43652,122.80005 q -1.52,0 -1.52,-1.536 v -0.944 q 0,-1.504 1.52,-1.504 h 0.928 q 1.456,0 1.456,1.504 v 0.944 q 0,1.536 -1.456,1.536 z m 0.448,18.848 q -1.344,0 -1.344,-1.344 v -13.536 q 0,-1.344 1.344,-1.344 1.344,0 1.344,1.344 v 13.536 q 0,1.344 -1.344,1.344 z"
         style="font-weight:bold"
         id="path1785" />
      <path
         d="m 259.22852,141.64805 q -1.344,0 -1.344,-1.344 v -13.536 q 0,-1.344 1.344,-1.344 1.344,0 1.344,1.344 v 0.528 q 1.696,-1.872 4.992,-1.872 h 0.896 q 3.2,0 4.736,1.536 1.536,1.536 1.536,4.736 v 8.608 q 0,1.344 -1.344,1.344 -1.344,0 -1.344,-1.344 v -8.608 q 0,-2.096 -0.768,-2.832 -0.752,-0.752 -2.816,-0.752 h -0.896 q -1.92,0 -3.344,0.448 -1.424,0.432 -1.648,1.376 v 10.368 q 0,1.344 -1.344,1.344 z"
         style="font-weight:bold"
         id="path1787" />
      <path
         d="m 296.12451,141.64805 q -3.664,0 -5.424,-1.744 -1.744,-1.76 -1.744,-5.424 v -13.184 q 0,-0.672 0.336,-1.008 0.336,-0.336 1.008,-0.336 0.672,0 1.008,0.336 0.336,0.336 0.336,1.008 v 13.184 q 0,1.712 0.4,2.688 0.416,0.976 1.392,1.392 0.976,0.4 2.688,0.4 h 3.84 q 1.712,0 2.688,-0.4 0.976,-0.416 1.376,-1.392 0.416,-0.976 0.416,-2.688 v -13.184 q 0,-0.672 0.336,-1.008 0.336,-0.336 1.008,-0.336 0.672,0 1.008,0.336 0.336,0.336 0.336,1.008 v 13.184 q 0,3.664 -1.744,5.424 -1.744,1.744 -5.424,1.744 z"
         style="font-weight:bold"
         id="path1789" />
      <path
         d="m 314.97254,141.64805 q -1.344,0 -1.344,-1.344 v -19.84 q 0,-1.344 1.344,-1.344 1.344,0 1.344,1.344 v 12.016 l 7.616,-6.544 q 1.024,-0.88 1.888,0.128 0.88,1.024 -0.128,1.888 l -5.84,5.04 5.584,6.352 q 0.896,1.04 -0.096,1.888 -1.024,0.88 -1.92,-0.128 l -5.616,-6.336 -1.488,1.28 v 4.256 q 0,1.344 -1.344,1.344 z"
         style="font-weight:bold"
         id="path1791" />
      <path
         d="m 331.22852,141.64805 q -1.344,0 -1.344,-1.344 v -13.536 q 0,-1.344 1.344,-1.344 1.344,0 1.344,1.344 v 1.248 q 0.944,-1.28 2.4,-1.936 1.472,-0.656 3.36,-0.656 1.344,0 1.344,1.344 0,1.344 -1.344,1.344 -2.768,0 -4.224,1.024 -1.456,1.024 -1.536,2.704 v 8.464 q 0,1.344 -1.344,1.344 z"
         style="font-weight:bold"
         id="path1793" />
      <path
         d="m 347.5805,141.64805 q -2.688,0 -4,-1.312 -1.312,-1.312 -1.312,-4 0,-2.688 1.296,-4 1.312,-1.312 4.016,-1.312 h 6.768 q -0.096,-1.68 -0.88,-2.288 -0.784,-0.624 -2.688,-0.624 h -1.856 q -1.6,0 -2.384,0.224 -0.784,0.208 -1.104,0.768 -0.288,0.672 -0.592,0.928 -0.304,0.256 -0.912,0.256 -0.672,0 -1.056,-0.368 -0.384,-0.384 -0.224,-1.008 0.48,-1.808 2,-2.64 1.536,-0.848 4.272,-0.848 h 1.856 q 3.2,0 4.736,1.536 1.536,1.536 1.536,4.736 v 8.608 q 0,1.344 -1.344,1.344 -1.344,0 -1.344,-1.344 v -0.72 q -1.712,2.064 -4.992,2.064 z m 0,-2.688 h 1.792 q 1.184,0 2.224,-0.208 1.04,-0.224 1.776,-0.8 0.752,-0.576 0.992,-1.648 v -2.592 h -6.784 q -1.584,0 -2.112,0.528 -0.512,0.528 -0.512,2.096 0,1.584 0.512,2.112 0.528,0.512 2.112,0.512 z"
         style="font-weight:bold"
         id="path1795" />
      <path
         d="m 364.28449,122.80005 q -1.52,0 -1.52,-1.536 v -0.944 q 0,-1.504 1.52,-1.504 h 0.928 q 1.456,0 1.456,1.504 v 0.944 q 0,1.536 -1.456,1.536 z m 0.448,18.848 q -1.344,0 -1.344,-1.344 v -13.536 q 0,-1.344 1.344,-1.344 1.344,0 1.344,1.344 v 13.536 q 0,1.344 -1.344,1.344 z"
         style="font-weight:bold"
         id="path1797" />
      <path
         d="m 374.07648,141.64805 q -1.344,0 -1.344,-1.344 v -13.536 q 0,-1.344 1.344,-1.344 1.344,0 1.344,1.344 v 0.528 q 1.696,-1.872 4.992,-1.872 h 0.896 q 3.2,0 4.736,1.536 1.536,1.536 1.536,4.736 v 8.608 q 0,1.344 -1.344,1.344 -1.344,0 -1.344,-1.344 v -8.608 q 0,-2.096 -0.768,-2.832 -0.752,-0.752 -2.816,-0.752 h -0.896 q -1.92,0 -3.344,0.448 -1.424,0.432 -1.648,1.376 v 10.368 q 0,1.344 -1.344,1.344 z"
         style="font-weight:bold"
         id="path1799" />
      <path
         d="m 395.8365,134.64005 v 0.768 q 0,2.064 0.752,2.816 0.752,0.736 2.832,0.736 h 2.624 q 1.632,0 2.416,-0.304 0.784,-0.304 1.04,-1.072 0.176,-0.608 0.48,-0.928 0.32,-0.32 0.96,-0.32 0.672,0 1.024,0.352 0.352,0.352 0.224,1.024 -0.352,1.984 -1.888,2.96 -1.536,0.976 -4.256,0.976 h -2.624 q -3.184,0 -4.736,-1.536 -1.536,-1.536 -1.536,-4.704 v -3.712 q 0,-3.248 1.536,-4.768 1.552,-1.536 4.736,-1.504 h 2.624 q 3.2,0 4.736,1.536 1.536,1.52 1.536,4.736 v 1.6 q 0,1.344 -1.344,1.344 z m 3.584,-6.528 q -2.08,-0.032 -2.832,0.72 -0.752,0.752 -0.752,2.864 v 0.256 h 9.792 v -0.256 q 0,-2.096 -0.752,-2.832 -0.736,-0.752 -2.832,-0.752 z"
         style="font-weight:bold"
         id="path1801" />
      <path
         d="m 446.1745,130.52305 v 2.1875 l -6.14063,6.14062 -2.26562,-2.26562 3.09375,-3.09375 h -18.10938 v -3.75 H 440.862 l -3.09375,-3.09375 2.26562,-2.26563 z"
         style="font-weight:bold"
         id="path1803" />
    </g>
  </g>
</svg>
